  0
SECTION
  2
HEADER
  9
$ACADVER
  1
AC1018
  9
$ACADMAINTVER
 70
     0
  9
$DWGCODEPAGE
  3
ANSI_1252
  9
$INSBASE
 10
0.0
 20
0.0
 30
0.0
  9
$EXTMIN
 10
1.000000000000000E+20
 20
1.000000000000000E+20
 30
1.000000000000000E+20
  9
$EXTMAX
 10
-1.000000000000000E+20
 20
-1.000000000000000E+20
 30
-1.000000000000000E+20
  9
$LIMMIN
 10
0.0
 20
0.0
  9
$LIMMAX
 10
12.0
 20
9.0
  9
$ORTHOMODE
 70
     0
  9
$REGENMODE
 70
     1
  9
$FILLMODE
 70
     1
  9
$QTEXTMODE
 70
     0
  9
$MIRRTEXT
 70
     1
  9
$LTSCALE
 40
1.0
  9
$ATTMODE
 70
     1
  9
$TEXTSIZE
 40
0.2
  9
$TRACEWID
 40
0.05
  9
$TEXTSTYLE
  7
Standard
  9
$CLAYER
  8
0
  9
$CELTYPE
  6
ByLayer
  9
$CECOLOR
 62
   256
  9
$CELTSCALE
 40
1.0
  9
$DISPSILH
 70
     0
  9
$DIMSCALE
 40
1.0
  9
$DIMASZ
 40
0.18
  9
$DIMEXO
 40
0.0625
  9
$DIMDLI
 40
0.38
  9
$DIMRND
 40
0.0
  9
$DIMDLE
 40
0.0
  9
$DIMEXE
 40
0.18
  9
$DIMTP
 40
0.0
  9
$DIMTM
 40
0.0
  9
$DIMTXT
 40
0.18
  9
$DIMCEN
 40
0.09
  9
$DIMTSZ
 40
0.0
  9
$DIMTOL
 70
     0
  9
$DIMLIM
 70
     0
  9
$DIMTIH
 70
     1
  9
$DIMTOH
 70
     1
  9
$DIMSE1
 70
     0
  9
$DIMSE2
 70
     0
  9
$DIMTAD
 70
     0
  9
$DIMZIN
 70
     0
  9
$DIMBLK
  1

  9
$DIMASO
 70
     1
  9
$DIMSHO
 70
     1
  9
$DIMPOST
  1

  9
$DIMAPOST
  1

  9
$DIMALT
 70
     0
  9
$DIMALTD
 70
     2
  9
$DIMALTF
 40
25.4
  9
$DIMLFAC
 40
1.0
  9
$DIMTOFL
 70
     0
  9
$DIMTVP
 40
0.0
  9
$DIMTIX
 70
     0
  9
$DIMSOXD
 70
     0
  9
$DIMSAH
 70
     0
  9
$DIMBLK1
  1

  9
$DIMBLK2
  1

  9
$DIMSTYLE
  2
Standard
  9
$DIMCLRD
 70
     0
  9
$DIMCLRE
 70
     0
  9
$DIMCLRT
 70
     0
  9
$DIMTFAC
 40
1.0
  9
$DIMGAP
 40
0.09
  9
$DIMJUST
 70
     0
  9
$DIMSD1
 70
     0
  9
$DIMSD2
 70
     0
  9
$DIMTOLJ
 70
     1
  9
$DIMTZIN
 70
     0
  9
$DIMALTZ
 70
     0
  9
$DIMALTTZ
 70
     0
  9
$DIMUPT
 70
     0
  9
$DIMDEC
 70
     4
  9
$DIMTDEC
 70
     4
  9
$DIMALTU
 70
     2
  9
$DIMALTTD
 70
     2
  9
$DIMTXSTY
  7
Standard
  9
$DIMAUNIT
 70
     0
  9
$DIMADEC
 70
     0
  9
$DIMALTRND
 40
0.0
  9
$DIMAZIN
 70
     0
  9
$DIMDSEP
 70
    46
  9
$DIMATFIT
 70
     3
  9
$DIMFRAC
 70
     0
  9
$DIMLDRBLK
  1

  9
$DIMLUNIT
 70
     2
  9
$DIMLWD
 70
    -2
  9
$DIMLWE
 70
    -2
  9
$DIMTMOVE
 70
     0
  9
$LUNITS
 70
     2
  9
$LUPREC
 70
     4
  9
$SKETCHINC
 40
0.1
  9
$FILLETRAD
 40
0.5
  9
$AUNITS
 70
     0
  9
$AUPREC
 70
     0
  9
$MENU
  1
.
  9
$ELEVATION
 40
0.0
  9
$PELEVATION
 40
0.0
  9
$THICKNESS
 40
0.0
  9
$LIMCHECK
 70
     0
  9
$CHAMFERA
 40
0.5
  9
$CHAMFERB
 40
0.5
  9
$CHAMFERC
 40
1.0
  9
$CHAMFERD
 40
0.0
  9
$SKPOLY
 70
     0
  9
$TDCREATE
 40
2457520.698026655
  9
$TDUCREATE
 40
2457520.614693322
  9
$TDUPDATE
 40
2457520.698026667
  9
$TDUUPDATE
 40
2457520.614693333
  9
$TDINDWG
 40
0.0000000116
  9
$TDUSRTIMER
 40
0.0000000116
  9
$USRTIMER
 70
     1
  9
$ANGBASE
 50
0.0
  9
$ANGDIR
 70
     0
  9
$PDMODE
 70
     0
  9
$PDSIZE
 40
0.0
  9
$PLINEWID
 40
0.0
  9
$SPLFRAME
 70
     0
  9
$SPLINETYPE
 70
     6
  9
$SPLINESEGS
 70
     8
  9
$HANDSEED
  5
88
  9
$SURFTAB1
 70
     6
  9
$SURFTAB2
 70
     6
  9
$SURFTYPE
 70
     6
  9
$SURFU
 70
     6
  9
$SURFV
 70
     6
  9
$UCSBASE
  2

  9
$UCSNAME
  2

  9
$UCSORG
 10
0.0
 20
0.0
 30
0.0
  9
$UCSXDIR
 10
1.0
 20
0.0
 30
0.0
  9
$UCSYDIR
 10
0.0
 20
1.0
 30
0.0
  9
$UCSORTHOREF
  2

  9
$UCSORTHOVIEW
 70
     0
  9
$UCSORGTOP
 10
0.0
 20
0.0
 30
0.0
  9
$UCSORGBOTTOM
 10
0.0
 20
0.0
 30
0.0
  9
$UCSORGLEFT
 10
0.0
 20
0.0
 30
0.0
  9
$UCSORGRIGHT
 10
0.0
 20
0.0
 30
0.0
  9
$UCSORGFRONT
 10
0.0
 20
0.0
 30
0.0
  9
$UCSORGBACK
 10
0.0
 20
0.0
 30
0.0
  9
$PUCSBASE
  2

  9
$PUCSNAME
  2

  9
$PUCSORG
 10
0.0
 20
0.0
 30
0.0
  9
$PUCSXDIR
 10
1.0
 20
0.0
 30
0.0
  9
$PUCSYDIR
 10
0.0
 20
1.0
 30
0.0
  9
$PUCSORTHOREF
  2

  9
$PUCSORTHOVIEW
 70
     0
  9
$PUCSORGTOP
 10
0.0
 20
0.0
 30
0.0
  9
$PUCSORGBOTTOM
 10
0.0
 20
0.0
 30
0.0
  9
$PUCSORGLEFT
 10
0.0
 20
0.0
 30
0.0
  9
$PUCSORGRIGHT
 10
0.0
 20
0.0
 30
0.0
  9
$PUCSORGFRONT
 10
0.0
 20
0.0
 30
0.0
  9
$PUCSORGBACK
 10
0.0
 20
0.0
 30
0.0
  9
$USERI1
 70
     0
  9
$USERI2
 70
     0
  9
$USERI3
 70
     0
  9
$USERI4
 70
     0
  9
$USERI5
 70
     0
  9
$USERR1
 40
0.0
  9
$USERR2
 40
0.0
  9
$USERR3
 40
0.0
  9
$USERR4
 40
0.0
  9
$USERR5
 40
0.0
  9
$WORLDVIEW
 70
     1
  9
$SHADEDGE
 70
     3
  9
$SHADEDIF
 70
    70
  9
$TILEMODE
 70
     1
  9
$MAXACTVP
 70
    64
  9
$PINSBASE
 10
0.0
 20
0.0
 30
0.0
  9
$PLIMCHECK
 70
     0
  9
$PEXTMIN
 10
1.000000000000000E+20
 20
1.000000000000000E+20
 30
1.000000000000000E+20
  9
$PEXTMAX
 10
-1.000000000000000E+20
 20
-1.000000000000000E+20
 30
-1.000000000000000E+20
  9
$PLIMMIN
 10
0.0
 20
0.0
  9
$PLIMMAX
 10
12.0
 20
9.0
  9
$UNITMODE
 70
     0
  9
$VISRETAIN
 70
     1
  9
$PLINEGEN
 70
     0
  9
$PSLTSCALE
 70
     1
  9
$TREEDEPTH
 70
  3020
  9
$CMLSTYLE
  2
Standard
  9
$CMLJUST
 70
     0
  9
$CMLSCALE
 40
1.0
  9
$PROXYGRAPHICS
 70
     1
  9
$MEASUREMENT
 70
     0
  9
$CELWEIGHT
370
    -1
  9
$ENDCAPS
280
     0
  9
$JOINSTYLE
280
     0
  9
$LWDISPLAY
290
     1
  9
$INSUNITS
 70
     1
  9
$HYPERLINKBASE
  1

  9
$STYLESHEET
  1

  9
$XEDIT
290
     1
  9
$CEPSNTYPE
380
     0
  9
$PSTYLEMODE
290
     1
  9
$FINGERPRINTGUID
  2
{DCF2A38D-D54C-4728-AAD4-68D8F03867AA}
  9
$VERSIONGUID
  2
{FAEB1C32-E019-11D5-929B-00C0DF256EC4}
  9
$EXTNAMES
290
     1
  9
$PSVPSCALE
 40
0.0
  9
$OLESTARTUP
290
     0
  9
$SORTENTS
280
   127
  9
$INDEXCTL
280
     0
  9
$HIDETEXT
280
     1
  9
$XCLIPFRAME
290
     0
  9
$HALOGAP
280
     0
  9
$OBSCOLOR
 70
   257
  9
$OBSLTYPE
280
     0
  9
$INTERSECTIONDISPLAY
280
     0
  9
$INTERSECTIONCOLOR
 70
   257
  9
$DIMASSOC
280
     2
  9
$PROJECTNAME
  1

  0
ENDSEC
  0
SECTION
  2
CLASSES
  0
CLASS
  1
ACDBDICTIONARYWDFLT
  2
AcDbDictionaryWithDefault
  3
ObjectDBX Classes
 90
        0
 91
        3
280
     0
281
     0
  0
CLASS
  1
VISUALSTYLE
  2
AcDbVisualStyle
  3
ObjectDBX Classes
 90
     4095
 91
        3
280
     0
281
     0
  0
ENDSEC
  0
SECTION
  2
TABLES
  0
TABLE
  2
VPORT
  5
8
330
0
100
AcDbSymbolTable
 70
     1
  0
VPORT
  5
29
330
8
100
AcDbSymbolTableRecord
100
AcDbViewportTableRecord
  2
*Active
 70
     0
 10
0.0
 20
0.0
 11
1.0
 21
1.0
 12
0.0
 22
0.0
 13
0.0
 23
0.0
 14
0.5
 24
0.5
 15
0.5
 25
0.5
 16
0.0
 26
0.0
 36
1.0
 17
107.7736110841677
 27
139.8763888539198
 37
0.0
 40
371.250379681493
 41
0.7070692823073068
 42
50.0
 43
0.0
 44
0.0
 50
0.0
 51
0.0
 71
     0
 72
   100
 73
     1
 74
     3
 75
     0
 76
     0
 77
     0
 78
     0
281
     0
 65
     1
110
0.0
120
0.0
130
0.0
111
1.0
121
0.0
131
0.0
112
0.0
122
1.0
132
0.0
 79
     0
146
0.0
  0
ENDTAB
  0
TABLE
  2
LTYPE
  5
5
330
0
100
AcDbSymbolTable
 70
     1
  0
LTYPE
  5
14
330
5
100
AcDbSymbolTableRecord
100
AcDbLinetypeTableRecord
  2
ByBlock
 70
     0
  3

 72
    65
 73
     0
 40
0.0
  0
LTYPE
  5
15
330
5
100
AcDbSymbolTableRecord
100
AcDbLinetypeTableRecord
  2
ByLayer
 70
     0
  3

 72
    65
 73
     0
 40
0.0
  0
LTYPE
  5
16
330
5
100
AcDbSymbolTableRecord
100
AcDbLinetypeTableRecord
  2
Continuous
 70
     0
  3
Solid line
 72
    65
 73
     0
 40
0.0
  0
ENDTAB
  0
TABLE
  2
LAYER
  5
2
330
0
100
AcDbSymbolTable
 70
     2
  0
LAYER
  5
10
330
2
100
AcDbSymbolTableRecord
100
AcDbLayerTableRecord
  2
0
 70
     0
 62
     7
  6
Continuous
370
    -3
390
F
  0
LAYER
  5
3B
330
2
100
AcDbSymbolTableRecord
100
AcDbLayerTableRecord
  2
svg2
 70
     0
 62
     7
  6
Continuous
370
    -3
390
F
  0
ENDTAB
  0
TABLE
  2
STYLE
  5
3
330
0
100
AcDbSymbolTable
 70
     1
  0
STYLE
  5
11
330
3
100
AcDbSymbolTableRecord
100
AcDbTextStyleTableRecord
  2
Standard
 70
     0
 40
0.0
 41
1.0
 50
0.0
 71
     0
 42
0.2
  3
txt
  4

  0
ENDTAB
  0
TABLE
  2
VIEW
  5
6
330
0
100
AcDbSymbolTable
 70
     0
  0
ENDTAB
  0
TABLE
  2
UCS
  5
7
330
0
100
AcDbSymbolTable
 70
     0
  0
ENDTAB
  0
TABLE
  2
APPID
  5
9
330
0
100
AcDbSymbolTable
 70
     1
  0
APPID
  5
12
330
9
100
AcDbSymbolTableRecord
100
AcDbRegAppTableRecord
  2
ACAD
 70
     0
  0
ENDTAB
  0
TABLE
  2
DIMSTYLE
  5
A
330
0
100
AcDbSymbolTable
 70
     1
100
AcDbDimStyleTable
  0
DIMSTYLE
105
27
330
A
100
AcDbSymbolTableRecord
100
AcDbDimStyleTableRecord
  2
Standard
 70
     0
340
11
  0
ENDTAB
  0
TABLE
  2
BLOCK_RECORD
  5
1
330
0
100
AcDbSymbolTable
 70
     5
  0
BLOCK_RECORD
  5
1F
330
1
100
AcDbSymbolTableRecord
100
AcDbBlockTableRecord
  2
*Model_Space
340
22
  0
BLOCK_RECORD
  5
1B
330
1
100
AcDbSymbolTableRecord
100
AcDbBlockTableRecord
  2
*Paper_Space
340
1E
  0
BLOCK_RECORD
  5
23
330
1
100
AcDbSymbolTableRecord
100
AcDbBlockTableRecord
  2
*Paper_Space0
340
26
  0
BLOCK_RECORD
  5
3C
330
1
100
AcDbSymbolTableRecord
100
AcDbBlockTableRecord
  2
block 2
340
0
102
{BLKREFS
331
3D
102
}
  0
BLOCK_RECORD
  5
40
330
1
100
AcDbSymbolTableRecord
100
AcDbBlockTableRecord
  2
block 3
340
0
102
{BLKREFS
331
41
102
}
  0
BLOCK_RECORD
  5
58
330
1
100
AcDbSymbolTableRecord
100
AcDbBlockTableRecord
  2
block 4
340
0
102
{BLKREFS
331
59
102
}
  0
BLOCK_RECORD
  5
68
330
1
100
AcDbSymbolTableRecord
100
AcDbBlockTableRecord
  2
block 5
340
0
102
{BLKREFS
331
69
102
}
  0
ENDTAB
  0
ENDSEC
  0
SECTION
  2
BLOCKS
  0
BLOCK
  5
20
330
1F
100
AcDbEntity
  8
0
100
AcDbBlockBegin
  2
*Model_Space
 70
     0
 71
     0
 10
0.0
 20
0.0
 30
0.0
  3
*Model_Space
  1

  0
ENDBLK
  5
21
330
1F
100
AcDbEntity
  8
0
100
AcDbBlockEnd
  0
BLOCK
  5
1C
330
1B
100
AcDbEntity
 67
     1
  8
0
100
AcDbBlockBegin
  2
*Paper_Space
 70
     0
 71
     0
 10
0.0
 20
0.0
 30
0.0
  3
*Paper_Space
  1

  0
ENDBLK
  5
1D
330
1B
100
AcDbEntity
 67
     1
  8
0
100
AcDbBlockEnd
  0
BLOCK
  5
24
330
23
100
AcDbEntity
  8
0
100
AcDbBlockBegin
  2
*Paper_Space0
 70
     0
 71
     0
 10
0.0
 20
0.0
 30
0.0
  3
*Paper_Space0
  1

  0
ENDBLK
  5
25
330
23
100
AcDbEntity
  8
0
100
AcDbBlockEnd
  0
BLOCK
  5
3E
330
3C
100
AcDbEntity
  8
0
100
AcDbBlockBegin
  2
block 2
 70
     0
 71
     0
 10
0.0
 20
0.0
 30
0.0
  3
block 2
  1

  0
ENDBLK
  5
3F
330
3C
100
AcDbEntity
  8
0
100
AcDbBlockEnd
  0
BLOCK
  5
42
330
40
100
AcDbEntity
  8
0
100
AcDbBlockBegin
  2
block 3
 70
     0
 71
     0
 10
0.0
 20
0.0
 30
0.0
  3
block 3
  1

  0
POLYLINE
  5
44
330
40
100
AcDbEntity
  8
svg2
 62
     7
420
 16777215
370
    13
100
AcDb2dPolyline
 66
     1
 10
0.0
 20
0.0
 30
0.0
  0
VERTEX
  5
45
330
44
100
AcDbEntity
  8
svg2
 62
     7
420
 16777215
370
    13
100
AcDbVertex
100
AcDb2dVertex
 10
31.28577337542509
 20
250.2190076414383
 30
0.0
  0
VERTEX
  5
46
330
44
100
AcDbEntity
  8
svg2
 62
     7
420
 16777215
370
    13
100
AcDbVertex
100
AcDb2dVertex
 10
188.0253878653201
 20
250.2190076414383
 30
0.0
  0
VERTEX
  5
47
330
44
100
AcDbEntity
  8
svg2
 62
     7
420
 16777215
370
    13
100
AcDbVertex
100
AcDb2dVertex
 10
188.0253878653201
 20
93.47922089676909
 30
0.0
  0
VERTEX
  5
48
330
44
100
AcDbEntity
  8
svg2
 62
     7
420
 16777215
370
    13
100
AcDbVertex
100
AcDb2dVertex
 10
31.28577337542509
 20
93.47922089676909
 30
0.0
  0
VERTEX
  5
49
330
44
100
AcDbEntity
  8
svg2
 62
     7
420
 16777215
370
    13
100
AcDbVertex
100
AcDb2dVertex
 10
31.28577337542509
 20
250.2190076414383
 30
0.0
  0
SEQEND
  5
4A
330
44
100
AcDbEntity
  8
svg2
370
    13
  0
POLYLINE
  5
4B
330
40
100
AcDbEntity
  8
svg2
 62
     7
420
 16777215
370
    13
100
AcDb2dPolyline
 66
     1
 10
0.0
 20
0.0
 30
0.0
  0
VERTEX
  5
4C
330
4B
100
AcDbEntity
  8
svg2
 62
     7
420
 16777215
370
    13
100
AcDbVertex
100
AcDb2dVertex
 10
52.41850584627038
 20
229.0859306610445
 30
0.0
  0
VERTEX
  5
4D
330
4B
100
AcDbEntity
  8
svg2
 62
     7
420
 16777215
370
    13
100
AcDbVertex
100
AcDb2dVertex
 10
166.892827649249
 20
229.0859306610445
 30
0.0
  0
VERTEX
  5
4E
330
4B
100
AcDbEntity
  8
svg2
 62
     7
420
 16777215
370
    13
100
AcDbVertex
100
AcDb2dVertex
 10
166.892827649249
 20
114.6121256223886
 30
0.0
  0
VERTEX
  5
4F
330
4B
100
AcDbEntity
  8
svg2
 62
     7
420
 16777215
370
    13
100
AcDbVertex
100
AcDb2dVertex
 10
52.41850584627038
 20
114.6121256223886
 30
0.0
  0
VERTEX
  5
50
330
4B
100
AcDbEntity
  8
svg2
 62
     7
420
 16777215
370
    13
100
AcDbVertex
100
AcDb2dVertex
 10
52.41850584627038
 20
229.0859306610445
 30
0.0
  0
SEQEND
  5
51
330
4B
100
AcDbEntity
  8
svg2
370
    13
  0
MTEXT
  5
52
330
40
100
AcDbEntity
  8
svg2
 62
     7
420
 16777215
100
AcDbMText
 10
105.9797498649981
 20
275.5787000179109
 30
0.0
 40
2.302933424267949
 41
0.0
 71
     7
 72
     1
  1
\fMyriad Pro|b0|i0|c0|p34;\W1;#1
 73
     1
 44
1.0
  0
POLYLINE
  5
53
330
40
100
AcDbEntity
  8
svg2
 62
     7
420
 16777215
370
    25
100
AcDb2dPolyline
 66
     1
 10
0.0
 20
0.0
 30
0.0
  0
VERTEX
  5
54
330
53
100
AcDbEntity
  8
svg2
 62
     7
420
 16777215
370
    25
100
AcDbVertex
100
AcDb2dVertex
 10
41.30755614201686
 20
260.1512179254136
 30
0.0
  0
VERTEX
  5
55
330
53
100
AcDbEntity
  8
svg2
 62
     7
420
 16777215
370
    25
100
AcDbVertex
100
AcDb2dVertex
 10
177.3362901032354
 20
260.1512179254136
 30
0.0
  0
SEQEND
  5
56
330
53
100
AcDbEntity
  8
svg2
370
    25
  0
MTEXT
  5
57
330
40
100
AcDbEntity
  8
svg2
 62
     7
420
 16777215
100
AcDbMText
 10
103.6451809094186
 20
263.0020344394578
 30
0.0
 40
2.302933424267949
 41
0.0
 71
     7
 72
     1
  1
\fMyriad Pro|b0|i0|c0|p34;\W1;136,23
 73
     1
 44
1.0
  0
ENDBLK
  5
43
330
40
100
AcDbEntity
  8
0
100
AcDbBlockEnd
  0
BLOCK
  5
5A
330
58
100
AcDbEntity
  8
0
100
AcDbBlockBegin
  2
block 4
 70
     0
 71
     0
 10
0.0
 20
0.0
 30
0.0
  3
block 4
  1

  0
SPLINE
  5
5C
330
58
100
AcDbEntity
  8
svg2
 62
     7
420
 16777215
370
     9
100
AcDbSpline
210
0.0
220
0.0
230
1.0
 70
    11
 71
     3
 72
    17
 73
    13
 74
     0
 42
0.0000000001
 43
0.0000000001
 40
0.0
 40
0.0
 40
0.0
 40
0.0
 40
1.0
 40
1.0
 40
1.0
 40
2.0
 40
2.0
 40
2.0
 40
3.0
 40
3.0
 40
3.0
 40
4.0
 40
4.0
 40
4.0
 40
4.0
 10
92.73869762221463
 20
239.8956067651129
 30
0.0
 10
92.73869762221463
 20
234.1960407943156
 30
0.0
 10
88.11848006694608
 20
229.5756509842728
 30
0.0
 10
82.41891409614875
 20
229.5756509842728
 30
0.0
 10
76.71900361580289
 20
229.5756509842728
 30
0.0
 10
72.09878606053434
 20
234.1960407943156
 30
0.0
 10
72.09878606053434
 20
239.8956067651129
 30
0.0
 10
72.09878606053434
 20
245.5953449906845
 30
0.0
 10
76.71900361580289
 20
250.2155625459531
 30
0.0
 10
82.41891409614875
 20
250.2155625459531
 30
0.0
 10
88.11848006694608
 20
250.2155625459531
 30
0.0
 10
92.73869762221463
 20
245.5953449906845
 30
0.0
 10
92.73869762221463
 20
239.8956067651129
 30
0.0
  0
SPLINE
  5
5D
330
58
100
AcDbEntity
  8
svg2
 62
     7
420
 16777215
370
     9
100
AcDbSpline
210
0.0
220
0.0
230
1.0
 70
    11
 71
     3
 72
    17
 73
    13
 74
     0
 42
0.0000000001
 43
0.0000000001
 40
0.0
 40
0.0
 40
0.0
 40
0.0
 40
1.0
 40
1.0
 40
1.0
 40
2.0
 40
2.0
 40
2.0
 40
3.0
 40
3.0
 40
3.0
 40
4.0
 40
4.0
 40
4.0
 40
4.0
 10
126.7963948250717
 20
239.8956067651129
 30
0.0
 10
126.7963948250717
 20
234.1960407943156
 30
0.0
 10
122.1761772698032
 20
229.5756509842728
 30
0.0
 10
116.4766112990059
 20
229.5756509842728
 30
0.0
 10
110.77670081866
 20
229.5756509842728
 30
0.0
 10
106.1564832633914
 20
234.1960407943156
 30
0.0
 10
106.1564832633914
 20
239.8956067651129
 30
0.0
 10
106.1564832633914
 20
245.5953449906845
 30
0.0
 10
110.77670081866
 20
250.2155625459531
 30
0.0
 10
116.4766112990059
 20
250.2155625459531
 30
0.0
 10
122.1761772698032
 20
250.2155625459531
 30
0.0
 10
126.7963948250717
 20
245.5953449906845
 30
0.0
 10
126.7963948250717
 20
239.8956067651129
 30
0.0
  0
SPLINE
  5
5E
330
58
100
AcDbEntity
  8
svg2
 62
     7
420
 16777215
370
     9
100
AcDbSpline
210
0.0
220
0.0
230
1.0
 70
    11
 71
     3
 72
    17
 73
    13
 74
     0
 42
0.0000000001
 43
0.0000000001
 40
0.0
 40
0.0
 40
0.0
 40
0.0
 40
1.0
 40
1.0
 40
1.0
 40
2.0
 40
2.0
 40
2.0
 40
3.0
 40
3.0
 40
3.0
 40
4.0
 40
4.0
 40
4.0
 40
4.0
 10
188.0994574182529
 20
239.8956067651129
 30
0.0
 10
188.0994574182529
 20
234.1960407943156
 30
0.0
 10
183.4792398629844
 20
229.5756509842728
 30
0.0
 10
177.779673892187
 20
229.5756509842728
 30
0.0
 10
172.0797634118412
 20
229.5756509842728
 30
0.0
 10
167.4595458565726
 20
234.1960407943156
 30
0.0
 10
167.4595458565726
 20
239.8956067651129
 30
0.0
 10
167.4595458565726
 20
245.5953449906845
 30
0.0
 10
172.0797634118412
 20
250.2155625459531
 30
0.0
 10
177.779673892187
 20
250.2155625459531
 30
0.0
 10
183.4792398629844
 20
250.2155625459531
 30
0.0
 10
188.0994574182529
 20
245.5953449906845
 30
0.0
 10
188.0994574182529
 20
239.8956067651129
 30
0.0
  0
SPLINE
  5
5F
330
58
100
AcDbEntity
  8
svg2
 62
     7
420
 16777215
370
     9
100
AcDbSpline
210
0.0
220
0.0
230
1.0
 70
    11
 71
     3
 72
    17
 73
    13
 74
     0
 42
0.0000000001
 43
0.0000000001
 40
0.0
 40
0.0
 40
0.0
 40
0.0
 40
1.0
 40
1.0
 40
1.0
 40
2.0
 40
2.0
 40
2.0
 40
3.0
 40
3.0
 40
3.0
 40
4.0
 40
4.0
 40
4.0
 40
4.0
 10
188.0980793800588
 20
205.8385985813529
 30
0.0
 10
188.0980793800588
 20
200.1392048653298
 30
0.0
 10
183.4775173152417
 20
195.5186428005127
 30
0.0
 10
177.7779513444444
 20
195.5186428005127
 30
0.0
 10
172.0783853736471
 20
195.5186428005127
 30
0.0
 10
167.45782330883
 20
200.1392048653298
 30
0.0
 10
167.45782330883
 20
205.8387708361271
 30
0.0
 10
167.45782330883
 20
211.5385090616987
 30
0.0
 10
172.0783853736471
 20
216.1587266169673
 30
0.0
 10
177.7779513444444
 20
216.1587266169673
 30
0.0
 10
183.4775173152417
 20
216.1587266169673
 30
0.0
 10
188.0980793800588
 20
211.5385090616987
 30
0.0
 10
188.0980793800588
 20
205.8385985813529
 30
0.0
  0
SPLINE
  5
60
330
58
100
AcDbEntity
  8
svg2
 62
     7
420
 16777215
370
     9
100
AcDbSpline
210
0.0
220
0.0
230
1.0
 70
    11
 71
     3
 72
    17
 73
    13
 74
     0
 42
0.0000000001
 43
0.0000000001
 40
0.0
 40
0.0
 40
0.0
 40
0.0
 40
1.0
 40
1.0
 40
1.0
 40
2.0
 40
2.0
 40
2.0
 40
3.0
 40
3.0
 40
3.0
 40
4.0
 40
4.0
 40
4.0
 40
4.0
 10
188.0980793800588
 20
144.5348469690746
 30
0.0
 10
188.0980793800588
 20
138.8352809982773
 30
0.0
 10
183.4775173152417
 20
134.2147189334602
 30
0.0
 10
177.7779513444444
 20
134.2147189334602
 30
0.0
 10
172.0783853736471
 20
134.2147189334602
 30
0.0
 10
167.45782330883
 20
138.8352809982773
 30
0.0
 10
167.45782330883
 20
144.5348469690746
 30
0.0
 10
167.45782330883
 20
150.2340684303234
 30
0.0
 10
172.0783853736471
 20
154.8544582403663
 30
0.0
 10
177.7779513444444
 20
154.8544582403663
 30
0.0
 10
183.4775173152417
 20
154.8544582403663
 30
0.0
 10
188.0980793800588
 20
150.2340684303234
 30
0.0
 10
188.0980793800588
 20
144.5348469690746
 30
0.0
  0
SPLINE
  5
61
330
58
100
AcDbEntity
  8
svg2
 62
     7
420
 16777215
370
     9
100
AcDbSpline
210
0.0
220
0.0
230
1.0
 70
    11
 71
     3
 72
    17
 73
    13
 74
     0
 42
0.0000000001
 43
0.0000000001
 40
0.0
 40
0.0
 40
0.0
 40
0.0
 40
1.0
 40
1.0
 40
1.0
 40
2.0
 40
2.0
 40
2.0
 40
3.0
 40
3.0
 40
3.0
 40
4.0
 40
4.0
 40
4.0
 40
4.0
 10
188.0980793800588
 20
103.6656792275558
 30
0.0
 10
188.0980793800588
 20
97.96611325675848
 30
0.0
 10
183.4775173152417
 20
93.3455511919414
 30
0.0
 10
177.7779513444444
 20
93.3455511919414
 30
0.0
 10
172.0783853736471
 20
93.3455511919414
 30
0.0
 10
167.45782330883
 20
97.96611325675848
 30
0.0
 10
167.45782330883
 20
103.6656792275558
 30
0.0
 10
167.45782330883
 20
109.3652451983531
 30
0.0
 10
172.0783853736471
 20
113.9858072631702
 30
0.0
 10
177.7779513444444
 20
113.9858072631702
 30
0.0
 10
183.4775173152417
 20
113.9858072631702
 30
0.0
 10
188.0980793800588
 20
109.3652451983531
 30
0.0
 10
188.0980793800588
 20
103.6656792275558
 30
0.0
  0
SPLINE
  5
62
330
58
100
AcDbEntity
  8
svg2
 62
     7
420
 16777215
370
     9
100
AcDbSpline
210
0.0
220
0.0
230
1.0
 70
    11
 71
     3
 72
    17
 73
    13
 74
     0
 42
0.0000000001
 43
0.0000000001
 40
0.0
 40
0.0
 40
0.0
 40
0.0
 40
1.0
 40
1.0
 40
1.0
 40
2.0
 40
2.0
 40
2.0
 40
3.0
 40
3.0
 40
3.0
 40
4.0
 40
4.0
 40
4.0
 40
4.0
 10
147.2309786958311
 20
103.6656792275558
 30
0.0
 10
147.2309786958311
 20
97.96611325675848
 30
0.0
 10
142.6104166310141
 20
93.3455511919414
 30
0.0
 10
136.9108506602167
 20
93.3455511919414
 30
0.0
 10
131.2112846894194
 20
93.3455511919414
 30
0.0
 10
126.5907226246023
 20
97.96611325675848
 30
0.0
 10
126.5907226246023
 20
103.6656792275558
 30
0.0
 10
126.5907226246023
 20
109.3652451983531
 30
0.0
 10
131.2112846894194
 20
113.9858072631702
 30
0.0
 10
136.9108506602167
 20
113.9858072631702
 30
0.0
 10
142.6104166310141
 20
113.9858072631702
 30
0.0
 10
147.2309786958311
 20
109.3652451983531
 30
0.0
 10
147.2309786958311
 20
103.6656792275558
 30
0.0
  0
SPLINE
  5
63
330
58
100
AcDbEntity
  8
svg2
 62
     7
420
 16777215
370
     9
100
AcDbSpline
210
0.0
220
0.0
230
1.0
 70
    11
 71
     3
 72
    17
 73
    13
 74
     0
 42
0.0000000001
 43
0.0000000001
 40
0.0
 40
0.0
 40
0.0
 40
0.0
 40
1.0
 40
1.0
 40
1.0
 40
2.0
 40
2.0
 40
2.0
 40
3.0
 40
3.0
 40
3.0
 40
4.0
 40
4.0
 40
4.0
 40
4.0
 10
85.92791610264997
 20
103.6656792275558
 30
0.0
 10
85.92791610264997
 20
97.96611325675848
 30
0.0
 10
81.3076985473814
 20
93.3455511919414
 30
0.0
 10
75.60778806703556
 20
93.3455511919414
 30
0.0
 10
69.90822209623822
 20
93.3455511919414
 30
0.0
 10
65.28800454096967
 20
97.96611325675848
 30
0.0
 10
65.28800454096967
 20
103.6656792275558
 30
0.0
 10
65.28800454096967
 20
109.3652451983531
 30
0.0
 10
69.90822209623822
 20
113.9858072631702
 30
0.0
 10
75.60778806703556
 20
113.9858072631702
 30
0.0
 10
81.3076985473814
 20
113.9858072631702
 30
0.0
 10
85.92791610264997
 20
109.3652451983531
 30
0.0
 10
85.92791610264997
 20
103.6656792275558
 30
0.0
  0
SPLINE
  5
64
330
58
100
AcDbEntity
  8
svg2
 62
     7
420
 16777215
370
     9
100
AcDbSpline
210
0.0
220
0.0
230
1.0
 70
    11
 71
     3
 72
    17
 73
    13
 74
     0
 42
0.0000000001
 43
0.0000000001
 40
0.0
 40
0.0
 40
0.0
 40
0.0
 40
1.0
 40
1.0
 40
1.0
 40
2.0
 40
2.0
 40
2.0
 40
3.0
 40
3.0
 40
3.0
 40
4.0
 40
4.0
 40
4.0
 40
4.0
 10
51.8700466450186
 20
103.6656792275558
 30
0.0
 10
51.8700466450186
 20
97.96611325675848
 30
0.0
 10
47.24965683497578
 20
93.3455511919414
 30
0.0
 10
41.54991860940419
 20
93.3455511919414
 30
0.0
 10
35.85000812905833
 20
93.3455511919414
 30
0.0
 10
31.22979057378977
 20
97.96611325675848
 30
0.0
 10
31.22979057378977
 20
103.6656792275558
 30
0.0
 10
31.22979057378977
 20
109.3652451983531
 30
0.0
 10
35.85000812905833
 20
113.9858072631702
 30
0.0
 10
41.54991860940419
 20
113.9858072631702
 30
0.0
 10
47.24965683497578
 20
113.9858072631702
 30
0.0
 10
51.8700466450186
 20
109.3652451983531
 30
0.0
 10
51.8700466450186
 20
103.6656792275558
 30
0.0
  0
SPLINE
  5
65
330
58
100
AcDbEntity
  8
svg2
 62
     7
420
 16777215
370
     9
100
AcDbSpline
210
0.0
220
0.0
230
1.0
 70
    11
 71
     3
 72
    17
 73
    13
 74
     0
 42
0.0000000001
 43
0.0000000001
 40
0.0
 40
0.0
 40
0.0
 40
0.0
 40
1.0
 40
1.0
 40
1.0
 40
2.0
 40
2.0
 40
2.0
 40
3.0
 40
3.0
 40
3.0
 40
4.0
 40
4.0
 40
4.0
 40
4.0
 10
51.8700466450186
 20
164.9697753493826
 30
0.0
 10
51.8700466450186
 20
159.2705538881337
 30
0.0
 10
47.24965683497578
 20
154.6499918233167
 30
0.0
 10
41.54991860940419
 20
154.6499918233167
 30
0.0
 10
35.85000812905833
 20
154.6499918233167
 30
0.0
 10
31.22979057378977
 20
159.2705538881337
 30
0.0
 10
31.22979057378977
 20
164.9697753493826
 30
0.0
 10
31.22979057378977
 20
170.6696858297284
 30
0.0
 10
35.85000812905833
 20
175.289903384997
 30
0.0
 10
41.54991860940419
 20
175.289903384997
 30
0.0
 10
47.24965683497578
 20
175.289903384997
 30
0.0
 10
51.8700466450186
 20
170.6696858297284
 30
0.0
 10
51.8700466450186
 20
164.9697753493826
 30
0.0
  0
SPLINE
  5
66
330
58
100
AcDbEntity
  8
svg2
 62
     7
420
 16777215
370
     9
100
AcDbSpline
210
0.0
220
0.0
230
1.0
 70
    11
 71
     3
 72
    17
 73
    13
 74
     0
 42
0.0000000001
 43
0.0000000001
 40
0.0
 40
0.0
 40
0.0
 40
0.0
 40
1.0
 40
1.0
 40
1.0
 40
2.0
 40
2.0
 40
2.0
 40
3.0
 40
3.0
 40
3.0
 40
4.0
 40
4.0
 40
4.0
 40
4.0
 10
51.8700466450186
 20
199.0267835331426
 30
0.0
 10
51.8700466450186
 20
193.3273898171196
 30
0.0
 10
47.24965683497578
 20
188.7068277523025
 30
0.0
 10
41.54991860940419
 20
188.7068277523025
 30
0.0
 10
35.85000812905833
 20
188.7068277523025
 30
0.0
 10
31.22979057378977
 20
193.3273898171196
 30
0.0
 10
31.22979057378977
 20
199.0267835331426
 30
0.0
 10
31.22979057378977
 20
204.7265217587142
 30
0.0
 10
35.85000812905833
 20
209.3467393139828
 30
0.0
 10
41.54991860940419
 20
209.3467393139828
 30
0.0
 10
47.24965683497578
 20
209.3467393139828
 30
0.0
 10
51.8700466450186
 20
204.7261772491657
 30
0.0
 10
51.8700466450186
 20
199.0267835331426
 30
0.0
  0
SPLINE
  5
67
330
58
100
AcDbEntity
  8
svg2
 62
     7
420
 16777215
370
     9
100
AcDbSpline
210
0.0
220
0.0
230
1.0
 70
    11
 71
     3
 72
    17
 73
    13
 74
     0
 42
0.0000000001
 43
0.0000000001
 40
0.0
 40
0.0
 40
0.0
 40
0.0
 40
1.0
 40
1.0
 40
1.0
 40
2.0
 40
2.0
 40
2.0
 40
3.0
 40
3.0
 40
3.0
 40
4.0
 40
4.0
 40
4.0
 40
4.0
 10
51.8700466450186
 20
239.8956067651129
 30
0.0
 10
51.8700466450186
 20
234.1960407943156
 30
0.0
 10
47.24965683497578
 20
229.5756509842728
 30
0.0
 10
41.54991860940419
 20
229.5756509842728
 30
0.0
 10
35.85000812905833
 20
229.5756509842728
 30
0.0
 10
31.22979057378977
 20
234.1960407943156
 30
0.0
 10
31.22979057378977
 20
239.8956067651129
 30
0.0
 10
31.22979057378977
 20
245.5953449906845
 30
0.0
 10
35.85000812905833
 20
250.2155625459531
 30
0.0
 10
41.54991860940419
 20
250.2155625459531
 30
0.0
 10
47.24965683497578
 20
250.2155625459531
 30
0.0
 10
51.8700466450186
 20
245.5953449906845
 30
0.0
 10
51.8700466450186
 20
239.8956067651129
 30
0.0
  0
INSERT
  5
69
330
58
100
AcDbEntity
  8
svg2
100
AcDbBlockReference
  2
block 5
 10
0.0
 20
0.0
 30
0.0
  0
SPLINE
  5
71
330
58
100
AcDbEntity
  8
svg2
 62
     7
420
 16777215
370
    35
100
AcDbSpline
210
0.0
220
0.0
230
1.0
 70
    11
 71
     3
 72
    17
 73
    13
 74
     0
 42
0.0000000001
 43
0.0000000001
 40
0.0
 40
0.0
 40
0.0
 40
0.0
 40
1.0
 40
1.0
 40
1.0
 40
2.0
 40
2.0
 40
2.0
 40
3.0
 40
3.0
 40
3.0
 40
4.0
 40
4.0
 40
4.0
 40
4.0
 10
186.5808593283548
 20
239.8956067651129
 30
0.0
 10
186.5808593283548
 20
235.0349215449739
 30
0.0
 10
182.640359112326
 20
231.0942490741709
 30
0.0
 10
177.779673892187
 20
231.0942490741709
 30
0.0
 10
172.918988672048
 20
231.0942490741709
 30
0.0
 10
168.9781439464707
 20
235.0345770354254
 30
0.0
 10
168.9781439464707
 20
239.8956067651129
 30
0.0
 10
168.9781439464707
 20
244.7564642400262
 30
0.0
 10
172.918988672048
 20
248.6969644560549
 30
0.0
 10
177.779673892187
 20
248.6969644560549
 30
0.0
 10
182.640359112326
 20
248.6969644560549
 30
0.0
 10
186.5808593283548
 20
244.7564642400262
 30
0.0
 10
186.5808593283548
 20
239.8956067651129
 30
0.0
  0
HATCH
  5
72
330
58
100
AcDbEntity
  8
svg2
 62
     7
420
 16777215
100
AcDbHatch
 10
0.0
 20
0.0
 30
0.0
210
0.0
220
0.0
230
1.0
  2
SOLID
 70
     1
 71
     0
 91
        1
 92
        1
 93
        1
 72
     4
 94
        3
 73
     0
 74
     1
 95
       17
 96
       13
 40
0.0
 40
0.0
 40
0.0
 40
0.0
 40
1.0
 40
1.0
 40
1.0
 40
2.0
 40
2.0
 40
2.0
 40
3.0
 40
3.0
 40
3.0
 40
4.0
 40
4.0
 40
4.0
 40
4.0
 10
186.5808593283548
 20
239.8956067651129
 10
186.5808593283548
 20
235.0349215449739
 10
182.640359112326
 20
231.0942490741709
 10
177.779673892187
 20
231.0942490741709
 10
172.918988672048
 20
231.0942490741709
 10
168.9781439464707
 20
235.0345770354254
 10
168.9781439464707
 20
239.8956067651129
 10
168.9781439464707
 20
244.7564642400262
 10
172.918988672048
 20
248.6969644560549
 10
177.779673892187
 20
248.6969644560549
 10
182.640359112326
 20
248.6969644560549
 10
186.5808593283548
 20
244.7564642400262
 10
186.5808593283548
 20
239.8956067651129
 97
        0
 75
     2
 76
     1
 98
        0
  0
SPLINE
  5
73
330
58
100
AcDbEntity
  8
svg2
 62
     7
420
 16777215
370
    35
100
AcDbSpline
210
0.0
220
0.0
230
1.0
 70
    11
 71
     3
 72
    17
 73
    13
 74
     0
 42
0.0000000001
 43
0.0000000001
 40
0.0
 40
0.0
 40
0.0
 40
0.0
 40
1.0
 40
1.0
 40
1.0
 40
2.0
 40
2.0
 40
2.0
 40
3.0
 40
3.0
 40
3.0
 40
4.0
 40
4.0
 40
4.0
 40
4.0
 10
125.2774522256251
 20
239.8956067651129
 30
0.0
 10
125.2774522256251
 20
235.0349215449739
 30
0.0
 10
121.3369520095963
 20
231.0942490741709
 30
0.0
 10
116.4762667894573
 20
231.0942490741709
 30
0.0
 10
111.6148925502213
 20
231.0942490741709
 30
0.0
 10
107.674736843741
 20
235.0345770354254
 30
0.0
 10
107.674736843741
 20
239.8956067651129
 30
0.0
 10
107.674736843741
 20
244.7564642400262
 30
0.0
 10
111.6148925502213
 20
248.6969644560549
 30
0.0
 10
116.4762667894573
 20
248.6969644560549
 30
0.0
 10
121.3369520095963
 20
248.6969644560549
 30
0.0
 10
125.2774522256251
 20
244.7564642400262
 30
0.0
 10
125.2774522256251
 20
239.8956067651129
 30
0.0
  0
HATCH
  5
74
330
58
100
AcDbEntity
  8
svg2
 62
     7
420
 16777215
100
AcDbHatch
 10
0.0
 20
0.0
 30
0.0
210
0.0
220
0.0
230
1.0
  2
SOLID
 70
     1
 71
     0
 91
        1
 92
        1
 93
        1
 72
     4
 94
        3
 73
     0
 74
     1
 95
       17
 96
       13
 40
0.0
 40
0.0
 40
0.0
 40
0.0
 40
1.0
 40
1.0
 40
1.0
 40
2.0
 40
2.0
 40
2.0
 40
3.0
 40
3.0
 40
3.0
 40
4.0
 40
4.0
 40
4.0
 40
4.0
 10
125.2774522256251
 20
239.8956067651129
 10
125.2774522256251
 20
235.0349215449739
 10
121.3369520095963
 20
231.0942490741709
 10
116.4762667894573
 20
231.0942490741709
 10
111.6148925502213
 20
231.0942490741709
 10
107.674736843741
 20
235.0345770354254
 10
107.674736843741
 20
239.8956067651129
 10
107.674736843741
 20
244.7564642400262
 10
111.6148925502213
 20
248.6969644560549
 10
116.4762667894573
 20
248.6969644560549
 10
121.3369520095963
 20
248.6969644560549
 10
125.2774522256251
 20
244.7564642400262
 10
125.2774522256251
 20
239.8956067651129
 97
        0
 75
     2
 76
     1
 98
        0
  0
SPLINE
  5
75
330
58
100
AcDbEntity
  8
svg2
 62
     7
420
 16777215
370
    35
100
AcDbSpline
210
0.0
220
0.0
230
1.0
 70
    11
 71
     3
 72
    17
 73
    13
 74
     0
 42
0.0000000001
 43
0.0000000001
 40
0.0
 40
0.0
 40
0.0
 40
0.0
 40
1.0
 40
1.0
 40
1.0
 40
2.0
 40
2.0
 40
2.0
 40
3.0
 40
3.0
 40
3.0
 40
4.0
 40
4.0
 40
4.0
 40
4.0
 10
91.22009953231651
 20
239.8956067651129
 30
0.0
 10
91.22009953231651
 20
235.0349215449739
 30
0.0
 10
87.27959931628774
 20
231.0942490741709
 30
0.0
 10
82.41891409614875
 20
231.0942490741709
 30
0.0
 10
77.55771211168697
 20
231.0942490741709
 30
0.0
 10
73.61738415043246
 20
235.0345770354254
 30
0.0
 10
73.61738415043246
 20
239.8956067651129
 30
0.0
 10
73.61738415043246
 20
244.7564642400262
 30
0.0
 10
77.55771211168697
 20
248.6969644560549
 30
0.0
 10
82.41891409614875
 20
248.6969644560549
 30
0.0
 10
87.27959931628774
 20
248.6969644560549
 30
0.0
 10
91.22009953231651
 20
244.7564642400262
 30
0.0
 10
91.22009953231651
 20
239.8956067651129
 30
0.0
  0
HATCH
  5
76
330
58
100
AcDbEntity
  8
svg2
 62
     7
420
 16777215
100
AcDbHatch
 10
0.0
 20
0.0
 30
0.0
210
0.0
220
0.0
230
1.0
  2
SOLID
 70
     1
 71
     0
 91
        1
 92
        1
 93
        1
 72
     4
 94
        3
 73
     0
 74
     1
 95
       17
 96
       13
 40
0.0
 40
0.0
 40
0.0
 40
0.0
 40
1.0
 40
1.0
 40
1.0
 40
2.0
 40
2.0
 40
2.0
 40
3.0
 40
3.0
 40
3.0
 40
4.0
 40
4.0
 40
4.0
 40
4.0
 10
91.22009953231651
 20
239.8956067651129
 10
91.22009953231651
 20
235.0349215449739
 10
87.27959931628774
 20
231.0942490741709
 10
82.41891409614875
 20
231.0942490741709
 10
77.55771211168697
 20
231.0942490741709
 10
73.61738415043246
 20
235.0345770354254
 10
73.61738415043246
 20
239.8956067651129
 10
73.61738415043246
 20
244.7564642400262
 10
77.55771211168697
 20
248.6969644560549
 10
82.41891409614875
 20
248.6969644560549
 10
87.27959931628774
 20
248.6969644560549
 10
91.22009953231651
 20
244.7564642400262
 10
91.22009953231651
 20
239.8956067651129
 97
        0
 75
     2
 76
     1
 98
        0
  0
SPLINE
  5
77
330
58
100
AcDbEntity
  8
svg2
 62
     7
420
 16777215
370
    35
100
AcDbSpline
210
0.0
220
0.0
230
1.0
 70
    11
 71
     3
 72
    17
 73
    13
 74
     0
 42
0.0000000001
 43
0.0000000001
 40
0.0
 40
0.0
 40
0.0
 40
0.0
 40
1.0
 40
1.0
 40
1.0
 40
2.0
 40
2.0
 40
2.0
 40
3.0
 40
3.0
 40
3.0
 40
4.0
 40
4.0
 40
4.0
 40
4.0
 10
50.35110404557195
 20
199.0267835331426
 30
0.0
 10
50.35110404557195
 20
194.1657538034551
 30
0.0
 10
46.41043157476892
 20
190.2254258422006
 30
0.0
 10
41.54957409985566
 20
190.2254258422006
 30
0.0
 10
36.68871662494241
 20
190.2254258422006
 30
0.0
 10
32.7483886636879
 20
194.1657538034551
 30
0.0
 10
32.7483886636879
 20
199.0267835331426
 30
0.0
 10
32.7483886636879
 20
203.8874687532816
 30
0.0
 10
36.68871662494241
 20
207.8281412240846
 30
0.0
 10
41.54957409985566
 20
207.8281412240846
 30
0.0
 10
46.41043157476892
 20
207.8281412240846
 30
0.0
 10
50.35110404557195
 20
203.8874687532816
 30
0.0
 10
50.35110404557195
 20
199.0267835331426
 30
0.0
  0
HATCH
  5
78
330
58
100
AcDbEntity
  8
svg2
 62
     7
420
 16777215
100
AcDbHatch
 10
0.0
 20
0.0
 30
0.0
210
0.0
220
0.0
230
1.0
  2
SOLID
 70
     1
 71
     0
 91
        1
 92
        1
 93
        1
 72
     4
 94
        3
 73
     0
 74
     1
 95
       17
 96
       13
 40
0.0
 40
0.0
 40
0.0
 40
0.0
 40
1.0
 40
1.0
 40
1.0
 40
2.0
 40
2.0
 40
2.0
 40
3.0
 40
3.0
 40
3.0
 40
4.0
 40
4.0
 40
4.0
 40
4.0
 10
50.35110404557195
 20
199.0267835331426
 10
50.35110404557195
 20
194.1657538034551
 10
46.41043157476892
 20
190.2254258422006
 10
41.54957409985566
 20
190.2254258422006
 10
36.68871662494241
 20
190.2254258422006
 10
32.7483886636879
 20
194.1657538034551
 10
32.7483886636879
 20
199.0267835331426
 10
32.7483886636879
 20
203.8874687532816
 10
36.68871662494241
 20
207.8281412240846
 10
41.54957409985566
 20
207.8281412240846
 10
46.41043157476892
 20
207.8281412240846
 10
50.35110404557195
 20
203.8874687532816
 10
50.35110404557195
 20
199.0267835331426
 97
        0
 75
     2
 76
     1
 98
        0
  0
SPLINE
  5
79
330
58
100
AcDbEntity
  8
svg2
 62
     7
420
 16777215
370
    35
100
AcDbSpline
210
0.0
220
0.0
230
1.0
 70
    11
 71
     3
 72
    17
 73
    13
 74
     0
 42
0.0000000001
 43
0.0000000001
 40
0.0
 40
0.0
 40
0.0
 40
0.0
 40
1.0
 40
1.0
 40
1.0
 40
2.0
 40
2.0
 40
2.0
 40
3.0
 40
3.0
 40
3.0
 40
4.0
 40
4.0
 40
4.0
 40
4.0
 10
50.35110404557195
 20
164.9697753493826
 30
0.0
 10
50.35110404557195
 20
160.1089178744693
 30
0.0
 10
46.41043157476892
 20
156.1685899132148
 30
0.0
 10
41.54957409985566
 20
156.1685899132148
 30
0.0
 10
36.68871662494241
 20
156.1685899132148
 30
0.0
 10
32.7483886636879
 20
160.1089178744693
 30
0.0
 10
32.7483886636879
 20
164.9697753493826
 30
0.0
 10
32.7483886636879
 20
169.8306328242958
 30
0.0
 10
36.68871662494241
 20
173.7713052950988
 30
0.0
 10
41.54957409985566
 20
173.7713052950988
 30
0.0
 10
46.41043157476892
 20
173.7713052950988
 30
0.0
 10
50.35110404557195
 20
169.8304605695216
 30
0.0
 10
50.35110404557195
 20
164.9697753493826
 30
0.0
  0
HATCH
  5
7A
330
58
100
AcDbEntity
  8
svg2
 62
     7
420
 16777215
100
AcDbHatch
 10
0.0
 20
0.0
 30
0.0
210
0.0
220
0.0
230
1.0
  2
SOLID
 70
     1
 71
     0
 91
        1
 92
        1
 93
        1
 72
     4
 94
        3
 73
     0
 74
     1
 95
       17
 96
       13
 40
0.0
 40
0.0
 40
0.0
 40
0.0
 40
1.0
 40
1.0
 40
1.0
 40
2.0
 40
2.0
 40
2.0
 40
3.0
 40
3.0
 40
3.0
 40
4.0
 40
4.0
 40
4.0
 40
4.0
 10
50.35110404557195
 20
164.9697753493826
 10
50.35110404557195
 20
160.1089178744693
 10
46.41043157476892
 20
156.1685899132148
 10
41.54957409985566
 20
156.1685899132148
 10
36.68871662494241
 20
156.1685899132148
 10
32.7483886636879
 20
160.1089178744693
 10
32.7483886636879
 20
164.9697753493826
 10
32.7483886636879
 20
169.8306328242958
 10
36.68871662494241
 20
173.7713052950988
 10
41.54957409985566
 20
173.7713052950988
 10
46.41043157476892
 20
173.7713052950988
 10
50.35110404557195
 20
169.8304605695216
 10
50.35110404557195
 20
164.9697753493826
 97
        0
 75
     2
 76
     1
 98
        0
  0
SPLINE
  5
7B
330
58
100
AcDbEntity
  8
svg2
 62
     7
420
 16777215
370
    35
100
AcDbSpline
210
0.0
220
0.0
230
1.0
 70
    11
 71
     3
 72
    17
 73
    13
 74
     0
 42
0.0000000001
 43
0.0000000001
 40
0.0
 40
0.0
 40
0.0
 40
0.0
 40
1.0
 40
1.0
 40
1.0
 40
2.0
 40
2.0
 40
2.0
 40
3.0
 40
3.0
 40
3.0
 40
4.0
 40
4.0
 40
4.0
 40
4.0
 10
50.35110404557195
 20
103.6656792275558
 30
0.0
 10
50.35110404557195
 20
98.80533851696534
 30
0.0
 10
46.41043157476892
 20
94.86449379138804
 30
0.0
 10
41.54957409985566
 20
94.86449379138804
 30
0.0
 10
36.68871662494241
 20
94.86449379138804
 30
0.0
 10
32.7483886636879
 20
98.80533851696534
 30
0.0
 10
32.7483886636879
 20
103.6656792275558
 30
0.0
 10
32.7483886636879
 20
108.5263644476948
 30
0.0
 10
36.68871662494241
 20
112.4672091732721
 30
0.0
 10
41.54957409985566
 20
112.4672091732721
 30
0.0
 10
46.41043157476892
 20
112.4672091732721
 30
0.0
 10
50.35110404557195
 20
108.5260199381463
 30
0.0
 10
50.35110404557195
 20
103.6656792275558
 30
0.0
  0
HATCH
  5
7C
330
58
100
AcDbEntity
  8
svg2
 62
     7
420
 16777215
100
AcDbHatch
 10
0.0
 20
0.0
 30
0.0
210
0.0
220
0.0
230
1.0
  2
SOLID
 70
     1
 71
     0
 91
        1
 92
        1
 93
        1
 72
     4
 94
        3
 73
     0
 74
     1
 95
       17
 96
       13
 40
0.0
 40
0.0
 40
0.0
 40
0.0
 40
1.0
 40
1.0
 40
1.0
 40
2.0
 40
2.0
 40
2.0
 40
3.0
 40
3.0
 40
3.0
 40
4.0
 40
4.0
 40
4.0
 40
4.0
 10
50.35110404557195
 20
103.6656792275558
 10
50.35110404557195
 20
98.80533851696534
 10
46.41043157476892
 20
94.86449379138804
 10
41.54957409985566
 20
94.86449379138804
 10
36.68871662494241
 20
94.86449379138804
 10
32.7483886636879
 20
98.80533851696534
 10
32.7483886636879
 20
103.6656792275558
 10
32.7483886636879
 20
108.5263644476948
 10
36.68871662494241
 20
112.4672091732721
 10
41.54957409985566
 20
112.4672091732721
 10
46.41043157476892
 20
112.4672091732721
 10
50.35110404557195
 20
108.5260199381463
 10
50.35110404557195
 20
103.6656792275558
 97
        0
 75
     2
 76
     1
 98
        0
  0
SPLINE
  5
7D
330
58
100
AcDbEntity
  8
svg2
 62
     7
420
 16777215
370
    35
100
AcDbSpline
210
0.0
220
0.0
230
1.0
 70
    11
 71
     3
 72
    17
 73
    13
 74
     0
 42
0.0000000001
 43
0.0000000001
 40
0.0
 40
0.0
 40
0.0
 40
0.0
 40
1.0
 40
1.0
 40
1.0
 40
2.0
 40
2.0
 40
2.0
 40
3.0
 40
3.0
 40
3.0
 40
4.0
 40
4.0
 40
4.0
 40
4.0
 10
145.712380605933
 20
103.6656792275558
 30
0.0
 10
145.712380605933
 20
98.80533851696534
 30
0.0
 10
141.7715358803557
 20
94.86449379138804
 30
0.0
 10
136.9108506602167
 20
94.86449379138804
 30
0.0
 10
132.0498209305292
 20
94.86449379138804
 30
0.0
 10
128.1093207145005
 20
98.80533851696534
 30
0.0
 10
128.1093207145005
 20
103.6656792275558
 30
0.0
 10
128.1093207145005
 20
108.5263644476948
 30
0.0
 10
132.0498209305292
 20
112.4672091732721
 30
0.0
 10
136.9108506602167
 20
112.4672091732721
 30
0.0
 10
141.7715358803557
 20
112.4668646637236
 30
0.0
 10
145.712380605933
 20
108.5260199381463
 30
0.0
 10
145.712380605933
 20
103.6656792275558
 30
0.0
  0
HATCH
  5
7E
330
58
100
AcDbEntity
  8
svg2
 62
     7
420
 16777215
100
AcDbHatch
 10
0.0
 20
0.0
 30
0.0
210
0.0
220
0.0
230
1.0
  2
SOLID
 70
     1
 71
     0
 91
        1
 92
        1
 93
        1
 72
     4
 94
        3
 73
     0
 74
     1
 95
       17
 96
       13
 40
0.0
 40
0.0
 40
0.0
 40
0.0
 40
1.0
 40
1.0
 40
1.0
 40
2.0
 40
2.0
 40
2.0
 40
3.0
 40
3.0
 40
3.0
 40
4.0
 40
4.0
 40
4.0
 40
4.0
 10
145.712380605933
 20
103.6656792275558
 10
145.712380605933
 20
98.80533851696534
 10
141.7715358803557
 20
94.86449379138804
 10
136.9108506602167
 20
94.86449379138804
 10
132.0498209305292
 20
94.86449379138804
 10
128.1093207145005
 20
98.80533851696534
 10
128.1093207145005
 20
103.6656792275558
 10
128.1093207145005
 20
108.5263644476948
 10
132.0498209305292
 20
112.4672091732721
 10
136.9108506602167
 20
112.4672091732721
 10
141.7715358803557
 20
112.4668646637236
 10
145.712380605933
 20
108.5260199381463
 10
145.712380605933
 20
103.6656792275558
 97
        0
 75
     2
 76
     1
 98
        0
  0
SPLINE
  5
7F
330
58
100
AcDbEntity
  8
svg2
 62
     7
420
 16777215
370
    35
100
AcDbSpline
210
0.0
220
0.0
230
1.0
 70
    11
 71
     3
 72
    17
 73
    13
 74
     0
 42
0.0000000001
 43
0.0000000001
 40
0.0
 40
0.0
 40
0.0
 40
0.0
 40
1.0
 40
1.0
 40
1.0
 40
2.0
 40
2.0
 40
2.0
 40
3.0
 40
3.0
 40
3.0
 40
4.0
 40
4.0
 40
4.0
 40
4.0
 10
84.40914575797758
 20
103.6656792275558
 30
0.0
 10
84.40914575797758
 20
98.80533851696534
 30
0.0
 10
80.46864554194882
 20
94.86449379138804
 30
0.0
 10
75.6076158122613
 20
94.86449379138804
 30
0.0
 10
70.7469305921223
 20
94.86449379138804
 30
0.0
 10
66.80625812131927
 20
98.80533851696534
 30
0.0
 10
66.80625812131927
 20
103.6656792275558
 30
0.0
 10
66.80625812131927
 20
108.5263644476948
 30
0.0
 10
70.7469305921223
 20
112.4672091732721
 30
0.0
 10
75.6076158122613
 20
112.4672091732721
 30
0.0
 10
80.46864554194882
 20
112.4668646637236
 30
0.0
 10
84.40914575797758
 20
108.5260199381463
 30
0.0
 10
84.40914575797758
 20
103.6656792275558
 30
0.0
  0
HATCH
  5
80
330
58
100
AcDbEntity
  8
svg2
 62
     7
420
 16777215
100
AcDbHatch
 10
0.0
 20
0.0
 30
0.0
210
0.0
220
0.0
230
1.0
  2
SOLID
 70
     1
 71
     0
 91
        1
 92
        1
 93
        1
 72
     4
 94
        3
 73
     0
 74
     1
 95
       17
 96
       13
 40
0.0
 40
0.0
 40
0.0
 40
0.0
 40
1.0
 40
1.0
 40
1.0
 40
2.0
 40
2.0
 40
2.0
 40
3.0
 40
3.0
 40
3.0
 40
4.0
 40
4.0
 40
4.0
 40
4.0
 10
84.40914575797758
 20
103.6656792275558
 10
84.40914575797758
 20
98.80533851696534
 10
80.46864554194882
 20
94.86449379138804
 10
75.6076158122613
 20
94.86449379138804
 10
70.7469305921223
 20
94.86449379138804
 10
66.80625812131927
 20
98.80533851696534
 10
66.80625812131927
 20
103.6656792275558
 10
66.80625812131927
 20
108.5263644476948
 10
70.7469305921223
 20
112.4672091732721
 10
75.6076158122613
 20
112.4672091732721
 10
80.46864554194882
 20
112.4668646637236
 10
84.40914575797758
 20
108.5260199381463
 10
84.40914575797758
 20
103.6656792275558
 97
        0
 75
     2
 76
     1
 98
        0
  0
SPLINE
  5
81
330
58
100
AcDbEntity
  8
svg2
 62
     7
420
 16777215
370
    35
100
AcDbSpline
210
0.0
220
0.0
230
1.0
 70
    11
 71
     3
 72
    17
 73
    13
 74
     0
 42
0.0000000001
 43
0.0000000001
 40
0.0
 40
0.0
 40
0.0
 40
0.0
 40
1.0
 40
1.0
 40
1.0
 40
2.0
 40
2.0
 40
2.0
 40
3.0
 40
3.0
 40
3.0
 40
4.0
 40
4.0
 40
4.0
 40
4.0
 10
186.5787922710636
 20
205.8385985813529
 30
0.0
 10
186.5787922710636
 20
200.9780856159881
 30
0.0
 10
182.6386365645834
 20
197.0372408904108
 30
0.0
 10
177.7779513444444
 20
197.0372408904108
 30
0.0
 10
172.9165771052084
 20
197.0372408904108
 30
0.0
 10
168.9764213987281
 20
200.9777411064396
 30
0.0
 10
168.9764213987281
 20
205.8385985813529
 30
0.0
 10
168.9764213987281
 20
210.6996283110404
 30
0.0
 10
172.9165771052084
 20
214.6401285270692
 30
0.0
 10
177.7779513444444
 20
214.6401285270692
 30
0.0
 10
182.6386365645834
 20
214.6401285270692
 30
0.0
 10
186.5787922710636
 20
210.6994560562661
 30
0.0
 10
186.5787922710636
 20
205.8385985813529
 30
0.0
  0
HATCH
  5
82
330
58
100
AcDbEntity
  8
svg2
 62
     7
420
 16777215
100
AcDbHatch
 10
0.0
 20
0.0
 30
0.0
210
0.0
220
0.0
230
1.0
  2
SOLID
 70
     1
 71
     0
 91
        1
 92
        1
 93
        1
 72
     4
 94
        3
 73
     0
 74
     1
 95
       17
 96
       13
 40
0.0
 40
0.0
 40
0.0
 40
0.0
 40
1.0
 40
1.0
 40
1.0
 40
2.0
 40
2.0
 40
2.0
 40
3.0
 40
3.0
 40
3.0
 40
4.0
 40
4.0
 40
4.0
 40
4.0
 10
186.5787922710636
 20
205.8385985813529
 10
186.5787922710636
 20
200.9780856159881
 10
182.6386365645834
 20
197.0372408904108
 10
177.7779513444444
 20
197.0372408904108
 10
172.9165771052084
 20
197.0372408904108
 10
168.9764213987281
 20
200.9777411064396
 10
168.9764213987281
 20
205.8385985813529
 10
168.9764213987281
 20
210.6996283110404
 10
172.9165771052084
 20
214.6401285270692
 10
177.7779513444444
 20
214.6401285270692
 10
182.6386365645834
 20
214.6401285270692
 10
186.5787922710636
 20
210.6994560562661
 10
186.5787922710636
 20
205.8385985813529
 97
        0
 75
     2
 76
     1
 98
        0
  0
SPLINE
  5
83
330
58
100
AcDbEntity
  8
svg2
 62
     7
420
 16777215
370
    35
100
AcDbSpline
210
0.0
220
0.0
230
1.0
 70
    11
 71
     3
 72
    17
 73
    13
 74
     0
 42
0.0000000001
 43
0.0000000001
 40
0.0
 40
0.0
 40
0.0
 40
0.0
 40
1.0
 40
1.0
 40
1.0
 40
2.0
 40
2.0
 40
2.0
 40
3.0
 40
3.0
 40
3.0
 40
4.0
 40
4.0
 40
4.0
 40
4.0
 10
186.5787922710636
 20
144.5343302047519
 30
0.0
 10
186.5787922710636
 20
139.6738172393871
 30
0.0
 10
182.6386365645834
 20
135.7329725138098
 30
0.0
 10
177.7779513444444
 20
135.7329725138098
 30
0.0
 10
172.9165771052084
 20
135.7329725138098
 30
0.0
 10
168.9764213987281
 20
139.6738172393871
 30
0.0
 10
168.9764213987281
 20
144.5343302047519
 30
0.0
 10
168.9764213987281
 20
149.3955321892136
 30
0.0
 10
172.9165771052084
 20
153.3358601504681
 30
0.0
 10
177.7779513444444
 20
153.3358601504681
 30
0.0
 10
182.6386365645834
 20
153.3358601504681
 30
0.0
 10
186.5787922710636
 20
149.3955321892136
 30
0.0
 10
186.5787922710636
 20
144.5343302047519
 30
0.0
  0
HATCH
  5
84
330
58
100
AcDbEntity
  8
svg2
 62
     7
420
 16777215
100
AcDbHatch
 10
0.0
 20
0.0
 30
0.0
210
0.0
220
0.0
230
1.0
  2
SOLID
 70
     1
 71
     0
 91
        1
 92
        1
 93
        1
 72
     4
 94
        3
 73
     0
 74
     1
 95
       17
 96
       13
 40
0.0
 40
0.0
 40
0.0
 40
0.0
 40
1.0
 40
1.0
 40
1.0
 40
2.0
 40
2.0
 40
2.0
 40
3.0
 40
3.0
 40
3.0
 40
4.0
 40
4.0
 40
4.0
 40
4.0
 10
186.5787922710636
 20
144.5343302047519
 10
186.5787922710636
 20
139.6738172393871
 10
182.6386365645834
 20
135.7329725138098
 10
177.7779513444444
 20
135.7329725138098
 10
172.9165771052084
 20
135.7329725138098
 10
168.9764213987281
 20
139.6738172393871
 10
168.9764213987281
 20
144.5343302047519
 10
168.9764213987281
 20
149.3955321892136
 10
172.9165771052084
 20
153.3358601504681
 10
177.7779513444444
 20
153.3358601504681
 10
182.6386365645834
 20
153.3358601504681
 10
186.5787922710636
 20
149.3955321892136
 10
186.5787922710636
 20
144.5343302047519
 97
        0
 75
     2
 76
     1
 98
        0
  0
SPLINE
  5
85
330
58
100
AcDbEntity
  8
svg2
 62
     7
420
 16777215
370
    35
100
AcDbSpline
210
0.0
220
0.0
230
1.0
 70
    11
 71
     3
 72
    17
 73
    13
 74
     0
 42
0.0000000001
 43
0.0000000001
 40
0.0
 40
0.0
 40
0.0
 40
0.0
 40
1.0
 40
1.0
 40
1.0
 40
2.0
 40
2.0
 40
2.0
 40
3.0
 40
3.0
 40
3.0
 40
4.0
 40
4.0
 40
4.0
 40
4.0
 10
186.5787922710636
 20
103.6656792275558
 30
0.0
 10
186.5787922710636
 20
98.80533851696534
 30
0.0
 10
182.6386365645834
 20
94.86449379138804
 30
0.0
 10
177.7779513444444
 20
94.86449379138804
 30
0.0
 10
172.9165771052084
 20
94.86449379138804
 30
0.0
 10
168.9764213987281
 20
98.80533851696534
 30
0.0
 10
168.9764213987281
 20
103.6656792275558
 30
0.0
 10
168.9764213987281
 20
108.5263644476948
 30
0.0
 10
172.9165771052084
 20
112.4672091732721
 30
0.0
 10
177.7779513444444
 20
112.4672091732721
 30
0.0
 10
182.6386365645834
 20
112.4672091732721
 30
0.0
 10
186.5787922710636
 20
108.5260199381463
 30
0.0
 10
186.5787922710636
 20
103.6656792275558
 30
0.0
  0
HATCH
  5
86
330
58
100
AcDbEntity
  8
svg2
 62
     7
420
 16777215
100
AcDbHatch
 10
0.0
 20
0.0
 30
0.0
210
0.0
220
0.0
230
1.0
  2
SOLID
 70
     1
 71
     0
 91
        1
 92
        1
 93
        1
 72
     4
 94
        3
 73
     0
 74
     1
 95
       17
 96
       13
 40
0.0
 40
0.0
 40
0.0
 40
0.0
 40
1.0
 40
1.0
 40
1.0
 40
2.0
 40
2.0
 40
2.0
 40
3.0
 40
3.0
 40
3.0
 40
4.0
 40
4.0
 40
4.0
 40
4.0
 10
186.5787922710636
 20
103.6656792275558
 10
186.5787922710636
 20
98.80533851696534
 10
182.6386365645834
 20
94.86449379138804
 10
177.7779513444444
 20
94.86449379138804
 10
172.9165771052084
 20
94.86449379138804
 10
168.9764213987281
 20
98.80533851696534
 10
168.9764213987281
 20
103.6656792275558
 10
168.9764213987281
 20
108.5263644476948
 10
172.9165771052084
 20
112.4672091732721
 10
177.7779513444444
 20
112.4672091732721
 10
182.6386365645834
 20
112.4672091732721
 10
186.5787922710636
 20
108.5260199381463
 10
186.5787922710636
 20
103.6656792275558
 97
        0
 75
     2
 76
     1
 98
        0
  0
ENDBLK
  5
5B
330
58
100
AcDbEntity
  8
0
100
AcDbBlockEnd
  0
BLOCK
  5
6A
330
68
100
AcDbEntity
  8
0
100
AcDbBlockBegin
  2
block 5
 70
     0
 71
     0
 10
0.0
 20
0.0
 30
0.0
  3
block 5
  1

  0
SPLINE
  5
6C
330
68
100
AcDbEntity
  8
svg2
370
     0
100
AcDbSpline
210
0.0
220
0.0
230
1.0
 70
    11
 71
     3
 72
    17
 73
    13
 74
     0
 42
0.0000000001
 43
0.0000000001
 40
0.0
 40
0.0
 40
0.0
 40
0.0
 40
1.0
 40
1.0
 40
1.0
 40
2.0
 40
2.0
 40
2.0
 40
3.0
 40
3.0
 40
3.0
 40
4.0
 40
4.0
 40
4.0
 40
4.0
 10
41.54991860940419
 20
248.6969644560549
 30
0.0
 10
46.41077608431745
 20
248.6969644560549
 30
0.0
 10
50.35144855512047
 20
244.7564642400262
 30
0.0
 10
50.35144855512047
 20
239.8956067651129
 30
0.0
 10
50.35144855512047
 20
235.0347492901997
 30
0.0
 10
46.41077608431745
 20
231.0942490741709
 30
0.0
 10
41.54991860940419
 20
231.0942490741709
 30
0.0
 10
36.68906113449093
 20
231.0942490741709
 30
0.0
 10
32.74856091846217
 20
235.0347492901997
 30
0.0
 10
32.74856091846217
 20
239.8956067651129
 30
0.0
 10
32.74856091846217
 20
244.7564642400262
 30
0.0
 10
36.68906113449093
 20
248.6969644560549
 30
0.0
 10
41.54991860940419
 20
248.6969644560549
 30
0.0
  0
HATCH
  5
6D
330
68
100
AcDbEntity
  8
svg2
 62
     7
420
 16777215
100
AcDbHatch
 10
0.0
 20
0.0
 30
0.0
210
0.0
220
0.0
230
1.0
  2
SOLID
 70
     1
 71
     0
 91
        1
 92
        1
 93
        1
 72
     4
 94
        3
 73
     0
 74
     1
 95
       17
 96
       13
 40
0.0
 40
0.0
 40
0.0
 40
0.0
 40
1.0
 40
1.0
 40
1.0
 40
2.0
 40
2.0
 40
2.0
 40
3.0
 40
3.0
 40
3.0
 40
4.0
 40
4.0
 40
4.0
 40
4.0
 10
41.54991860940419
 20
248.6969644560549
 10
46.41077608431745
 20
248.6969644560549
 10
50.35144855512047
 20
244.7564642400262
 10
50.35144855512047
 20
239.8956067651129
 10
50.35144855512047
 20
235.0347492901997
 10
46.41077608431745
 20
231.0942490741709
 10
41.54991860940419
 20
231.0942490741709
 10
36.68906113449093
 20
231.0942490741709
 10
32.74856091846217
 20
235.0347492901997
 10
32.74856091846217
 20
239.8956067651129
 10
32.74856091846217
 20
244.7564642400262
 10
36.68906113449093
 20
248.6969644560549
 10
41.54991860940419
 20
248.6969644560549
 97
        0
 75
     2
 76
     1
 98
        0
  0
SPLINE
  5
6E
330
68
100
AcDbEntity
  8
svg2
370
     0
100
AcDbSpline
210
0.0
220
0.0
230
1.0
 70
    11
 71
     3
 72
    92
 73
    88
 74
     0
 42
0.0000000001
 43
0.0000000001
 40
0.0
 40
0.0
 40
0.0
 40
0.0
 40
1.0
 40
1.0
 40
1.0
 40
2.0
 40
2.0
 40
2.0
 40
3.0
 40
3.0
 40
3.0
 40
4.0
 40
4.0
 40
4.0
 40
5.0
 40
5.0
 40
5.0
 40
6.0
 40
6.0
 40
6.0
 40
7.0
 40
7.0
 40
7.0
 40
8.0
 40
8.0
 40
8.0
 40
9.0
 40
9.0
 40
9.0
 40
10.0
 40
10.0
 40
10.0
 40
11.0
 40
11.0
 40
11.0
 40
12.0
 40
12.0
 40
12.0
 40
13.0
 40
13.0
 40
13.0
 40
14.0
 40
14.0
 40
14.0
 40
15.0
 40
15.0
 40
15.0
 40
16.0
 40
16.0
 40
16.0
 40
17.0
 40
17.0
 40
17.0
 40
18.0
 40
18.0
 40
18.0
 40
19.0
 40
19.0
 40
19.0
 40
20.0
 40
20.0
 40
20.0
 40
21.0
 40
21.0
 40
21.0
 40
22.0
 40
22.0
 40
22.0
 40
23.0
 40
23.0
 40
23.0
 40
24.0
 40
24.0
 40
24.0
 40
25.0
 40
25.0
 40
25.0
 40
26.0
 40
26.0
 40
26.0
 40
27.0
 40
27.0
 40
27.0
 40
28.0
 40
28.0
 40
28.0
 40
29.0
 40
29.0
 40
29.0
 40
29.0
 10
50.37125785416066
 20
239.8950900007901
 30
0.0
 10
50.37125785416066
 20
239.8950900007901
 30
0.0
 10
50.35971678428508
 20
239.6789102590907
 30
0.0
 10
50.33784042795374
 20
239.2744560491224
 30
0.0
 10
50.33026121788619
 20
239.1736870061788
 30
0.0
 10
50.33232827517734
 20
239.0603433647141
 30
0.0
 10
50.31389701433125
 20
238.9366644367936
 30
0.0
 10
50.29494898916238
 20
238.8133300184217
 30
0.0
 10
50.27393390670235
 20
238.6786267849484
 30
0.0
 10
50.25136853127397
 20
238.5332437554709
 30
0.0
 10
50.22621933423164
 20
238.3882052355418
 30
0.0
 10
50.21002738545097
 20
238.2305921170917
 30
0.0
 10
50.17316486375879
 20
238.066088807671
 30
0.0
 10
50.13096244406449
 20
237.9027912816701
 30
0.0
 10
50.08565943843345
 20
237.7295029787621
 30
0.0
 10
50.038117120737
 20
237.546396153721
 30
0.0
 10
49.82968884387939
 20
236.8224093374958
 30
0.0
 10
49.50619437781442
 20
235.9475273390166
 30
0.0
 10
48.91363795435145
 20
235.0728175953117
 30
0.0
 10
48.33072779824718
 20
234.1986246159295
 30
0.0
 10
47.51785751850248
 20
233.3016940063447
 30
0.0
 10
46.44212645323322
 20
232.5735730755372
 30
0.0
 10
45.36536185931838
 20
231.854237138217
 30
0.0
 10
44.02711451807308
 20
231.3180080259379
 30
0.0
 10
42.54865179057812
 20
231.1371405129622
 30
0.0
 10
42.36485594644004
 20
231.1076849465634
 30
0.0
 10
42.17658147817114
 20
231.1118190611457
 30
0.0
 10
41.98865151945076
 20
231.0973496601076
 30
0.0
 10
41.80020479640759
 20
231.0932155455253
 30
0.0
 10
41.61193032813868
 20
231.064104488675
 30
0.0
 10
41.41986625483601
 20
231.0801241826814
 30
0.0
 10
41.03969996803869
 20
231.1035508319811
 30
0.0
 10
40.65333250936792
 20
231.0959716219135
 30
0.0
 10
40.26696505069715
 20
231.1698689200721
 30
0.0
 10
39.48699543283659
 20
231.2578911097202
 30
0.0
 10
38.71753335620603
 20
231.5011148509789
 30
0.0
 10
37.96667479519584
 20
231.8111734446514
 30
0.0
 10
37.2154717246371
 20
232.1291557579399
 30
0.0
 10
36.51473930293729
 20
232.5828748333473
 30
0.0
 10
35.85741508435162
 20
233.1032565063943
 30
0.0
 10
35.21111517131875
 20
233.6406914020933
 30
0.0
 10
34.64198539715548
 20
234.2806178884785
 30
0.0
 10
34.14985350708753
 20
234.9834173674694
 30
0.0
 10
33.67081297986355
 20
235.6972411520132
 30
0.0
 10
33.30201550816755
 20
236.4877183111038
 30
0.0
 10
33.03002521960708
 20
237.3143689727895
 30
0.0
 10
32.77508815369859
 20
238.1508381566081
 30
0.0
 10
32.6510647162296
 20
239.0141790852117
 30
0.0
 10
32.63004963376957
 20
239.9016356822121
 30
0.0
 10
32.64658609209877
 20
240.7563638721026
 30
0.0
 10
32.75769042149808
 20
241.6489881123308
 30
0.0
 10
33.00608180598459
 20
242.4839070031811
 30
0.0
 10
33.26980386538047
 20
243.3155530533204
 30
0.0
 10
33.63171114610596
 20
244.1136094224786
 30
0.0
 10
34.10575628487634
 20
244.8367349648325
 30
0.0
 10
34.59306504126493
 20
245.5488362016336
 30
0.0
 10
35.15909422949148
 20
246.2009927769914
 30
0.0
 10
35.80918374755812
 20
246.7451456088866
 30
0.0
 10
36.46909178775773
 20
247.2734510015497
 30
0.0
 10
37.17413057881411
 20
247.7354383061217
 30
0.0
 10
37.93084580214924
 20
248.060483065155
 30
0.0
 10
39.43428547191226
 20
248.725903258131
 30
0.0
 10
41.07466768721397
 20
248.9270968344696
 30
0.0
 10
42.55416394335452
 20
248.7498466717535
 30
0.0
 10
44.05880939653738
 20
248.5610554391618
 30
0.0
 10
45.40119085236498
 20
248.0141465308784
 30
0.0
 10
46.48656818499294
 20
247.2830972689084
 30
0.0
 10
47.57005071510402
 20
246.5451578159679
 30
0.0
 10
48.38274874007445
 20
245.6341023148936
 30
0.0
 10
48.95825194088544
 20
244.7473347369903
 30
0.0
 10
49.54495170202349
 20
243.8607394138612
 30
0.0
 10
49.8608669580209
 20
242.9791394791858
 30
0.0
 10
50.06206053435949
 20
242.2510185483782
 30
0.0
 10
50.10805255908758
 20
242.0670504494659
 30
0.0
 10
50.15128850742746
 20
241.892556363138
 30
0.0
 10
50.19211288892767
 20
241.7287420728144
 30
0.0
 10
50.22708060810295
 20
241.5635497442966
 30
0.0
 10
50.24206677346379
 20
241.4050753519751
 30
0.0
 10
50.26566567753775
 20
241.2598645772719
 30
0.0
 10
50.28685301477204
 20
241.1139647834715
 30
0.0
 10
50.30649005903796
 20
240.9792615499983
 30
0.0
 10
50.32440455556127
 20
240.855754876852
 30
0.0
 10
50.34180228776177
 20
240.7320759489316
 30
0.0
 10
50.33784042795374
 20
240.6182155431441
 30
0.0
 10
50.34507512847276
 20
240.5167574811035
 30
0.0
 10
50.36195609635048
 20
240.1117865068123
 30
0.0
 10
50.37125785416066
 20
239.8950900007901
 30
0.0
 10
50.37125785416066
 20
239.8950900007901
 30
0.0
  0
SPLINE
  5
6F
330
68
100
AcDbEntity
  8
svg2
370
     0
100
AcDbSpline
210
0.0
220
0.0
230
1.0
 70
    11
 71
     3
 72
   101
 73
    97
 74
     0
 42
0.0000000001
 43
0.0000000001
 40
0.0
 40
0.0
 40
0.0
 40
0.0
 40
1.0
 40
1.0
 40
1.0
 40
2.0
 40
2.0
 40
2.0
 40
3.0
 40
3.0
 40
3.0
 40
4.0
 40
4.0
 40
4.0
 40
5.0
 40
5.0
 40
5.0
 40
6.0
 40
6.0
 40
6.0
 40
7.0
 40
7.0
 40
7.0
 40
8.0
 40
8.0
 40
8.0
 40
9.0
 40
9.0
 40
9.0
 40
10.0
 40
10.0
 40
10.0
 40
11.0
 40
11.0
 40
11.0
 40
12.0
 40
12.0
 40
12.0
 40
13.0
 40
13.0
 40
13.0
 40
14.0
 40
14.0
 40
14.0
 40
15.0
 40
15.0
 40
15.0
 40
16.0
 40
16.0
 40
16.0
 40
17.0
 40
17.0
 40
17.0
 40
18.0
 40
18.0
 40
18.0
 40
19.0
 40
19.0
 40
19.0
 40
20.0
 40
20.0
 40
20.0
 40
21.0
 40
21.0
 40
21.0
 40
22.0
 40
22.0
 40
22.0
 40
23.0
 40
23.0
 40
23.0
 40
24.0
 40
24.0
 40
24.0
 40
25.0
 40
25.0
 40
25.0
 40
26.0
 40
26.0
 40
26.0
 40
27.0
 40
27.0
 40
27.0
 40
28.0
 40
28.0
 40
28.0
 40
29.0
 40
29.0
 40
29.0
 40
30.0
 40
30.0
 40
30.0
 40
31.0
 40
31.0
 40
31.0
 40
32.0
 40
32.0
 40
32.0
 40
32.0
 10
50.33095023698323
 20
239.8961235294357
 30
0.0
 10
50.33095023698323
 20
239.8961235294357
 30
0.0
 10
50.31854789323634
 20
240.1105807233925
 30
0.0
 10
50.29512124393664
 20
240.5140014047153
 30
0.0
 10
50.28668075999778
 20
240.6144259381103
 30
0.0
 10
50.28857556251467
 20
240.727769579575
 30
0.0
 10
50.26979979212005
 20
240.8504149788499
 30
0.0
 10
50.24999049307986
 20
240.9728881233505
 30
0.0
 10
50.22845864629706
 20
241.1067300829525
 30
0.0
 10
50.20537650654588
 20
241.2507350742359
 30
0.0
 10
50.18005505472929
 20
241.3947400655194
 30
0.0
 10
50.16282957730304
 20
241.5518364196468
 30
0.0
 10
50.12545029128808
 20
241.7147894360991
 30
0.0
 10
50.08273110727099
 20
241.8768811786801
 30
0.0
 10
50.03691133731716
 20
242.0493082077168
 30
0.0
 10
49.98868000052367
 20
242.2310369945638
 30
0.0
 10
49.77835692114916
 20
242.9498561675612
 30
0.0
 10
49.45262314301879
 20
243.8173312107471
 30
0.0
 10
48.86058348387861
 20
244.6834282157389
 30
0.0
 10
48.27939587551696
 20
245.5502142398277
 30
0.0
 10
47.46549206712668
 20
246.4347425056656
 30
0.0
 10
46.39200031392284
 20
247.1425373731102
 30
0.0
 10
45.32040336323588
 20
247.8427530304872
 30
0.0
 10
43.98646239134714
 20
248.3593450985005
 30
0.0
 10
42.53848875889663
 20
248.5231593888241
 30
0.0
 10
42.35899928411511
 20
248.5508924074803
 30
0.0
 10
42.16814099423227
 20
248.5448634903811
 30
0.0
 10
41.98141681893173
 20
248.5572658341281
 30
0.0
 10
41.79710421047086
 20
248.559849655742
 30
0.0
 10
41.59642739845506
 20
248.5868936553012
 30
0.0
 10
41.42193331212716
 20
248.5691514135522
 30
0.0
 10
41.04710692333197
 20
248.54279643309
 30
0.0
 10
40.66573485311482
 20
248.5438299617356
 30
0.0
 10
40.28815238793143
 20
248.4659708037689
 30
0.0
 10
39.52471922840007
 20
248.3715751874731
 30
0.0
 10
38.77127684577593
 20
248.1257676246005
 30
0.0
 10
38.03919405516034
 20
247.8153645213795
 30
0.0
 10
37.30607773589918
 20
247.4970376985424
 30
0.0
 10
36.62498235846528
 20
247.0457301899747
 30
0.0
 10
35.98729518414554
 20
246.5317219435754
 30
0.0
 10
35.36201035357269
 20
245.99928243633
 30
0.0
 10
34.8085557638673
 20
245.3738253509829
 30
0.0
 10
34.33089327483741
 20
244.6861842921271
 30
0.0
 10
33.86683891297427
 20
243.9878634372669
 30
0.0
 10
33.51096054934796
 20
243.2158175390225
 30
0.0
 10
33.24878878292044
 20
242.4100097050225
 30
0.0
 10
33.00298122004786
 20
241.5924885463727
 30
0.0
 10
32.89118787155151
 20
240.7617037701047
 30
0.0
 10
32.86707220315476
 20
239.8894055932395
 30
0.0
 10
32.88670924742068
 20
239.0494913139356
 30
0.0
 10
32.98592799739588
 20
238.1890787164944
 30
0.0
 10
33.22484536929796
 20
237.3734523603615
 30
0.0
 10
33.47874890656087
 20
236.5623046283594
 30
0.0
 10
33.82739256966816
 20
235.7826795200474
 30
0.0
 10
34.28714056217474
 20
235.0750569073771
 30
0.0
 10
34.75980766275102
 20
234.3784586002596
 30
0.0
 10
35.30964490219689
 20
233.7404269163913
 30
0.0
 10
35.93906384735204
 20
233.2009249634012
 30
0.0
 10
36.57933484328572
 20
232.6791652521601
 30
0.0
 10
37.26473659007618
 20
232.219761769202
 30
0.0
 10
38.00302055256522
 20
231.8943725006202
 30
0.0
 10
38.74061549595721
 20
231.5769069516544
 30
0.0
 10
39.50232610774595
 20
231.3236924334885
 30
0.0
 10
40.27247720347355
 20
231.2251627026104
 30
0.0
 10
40.65333250936792
 20
231.1469590350952
 30
0.0
 10
41.04159477055558
 20
231.1455809969011
 30
0.0
 10
41.42124429303011
 20
231.1211208189558
 30
0.0
 10
41.60934650652475
 20
231.1042398510781
 30
0.0
 10
41.79899901298775
 20
231.1319728697344
 30
0.0
 10
41.98623995261108
 20
231.1349012008968
 30
0.0
 10
42.17330863746015
 20
231.1481648185151
 30
0.0
 10
42.36106634140626
 20
231.1428249205129
 30
0.0
 10
42.54400091167303
 20
231.1712469582662
 30
0.0
 10
44.01764050548865
 20
231.3428127134317
 30
0.0
 10
45.35571559195969
 20
231.8697400679006
 30
0.0
 10
46.43592528135977
 20
232.5821858142503
 30
0.0
 10
47.51734075417969
 20
233.2994546942793
 30
0.0
 10
48.33124456256997
 20
234.1986246159295
 30
0.0
 10
48.90502521563833
 20
235.0778129837653
 30
0.0
 10
49.49120821245359
 20
235.9549342943099
 30
0.0
 10
49.80901827096789
 20
236.8298162927891
 30
0.0
 10
50.01245115937189
 20
237.5527695803688
 30
0.0
 10
50.05895994842276
 20
237.7357041506355
 30
0.0
 10
50.10254040631117
 20
237.9088201987693
 30
0.0
 10
50.14422606168269
 20
238.0716009604474
 30
0.0
 10
50.17971054518077
 20
238.2355875055453
 30
0.0
 10
50.1952134748644
 20
238.3926838596727
 30
0.0
 10
50.21915688848688
 20
238.5370333605046
 30
0.0
 10
50.24086099004396
 20
238.6817273708851
 30
0.0
 10
50.26101479863267
 20
238.8155693304871
 30
0.0
 10
50.27927380470449
 20
238.9383869845362
 30
0.0
 10
50.29718830122779
 20
239.0610323838112
 30
0.0
 10
50.29408771529106
 20
239.1750650443729
 30
0.0
 10
50.30132241581009
 20
239.2758340873165
 30
0.0
 10
50.32078720530175
 20
239.6808050616076
 30
0.0
 10
50.33095023698323
 20
239.8961235294357
 30
0.0
 10
50.33095023698323
 20
239.8961235294357
 30
0.0
  0
HATCH
  5
70
330
68
100
AcDbEntity
  8
svg2
 62
     7
420
 16777215
100
AcDbHatch
 10
0.0
 20
0.0
 30
0.0
210
0.0
220
0.0
230
1.0
  2
SOLID
 70
     1
 71
     0
 91
        2
 92
        1
 93
        1
 72
     4
 94
        3
 73
     0
 74
     1
 95
       92
 96
       88
 40
0.0
 40
0.0
 40
0.0
 40
0.0
 40
1.0
 40
1.0
 40
1.0
 40
2.0
 40
2.0
 40
2.0
 40
3.0
 40
3.0
 40
3.0
 40
4.0
 40
4.0
 40
4.0
 40
5.0
 40
5.0
 40
5.0
 40
6.0
 40
6.0
 40
6.0
 40
7.0
 40
7.0
 40
7.0
 40
8.0
 40
8.0
 40
8.0
 40
9.0
 40
9.0
 40
9.0
 40
10.0
 40
10.0
 40
10.0
 40
11.0
 40
11.0
 40
11.0
 40
12.0
 40
12.0
 40
12.0
 40
13.0
 40
13.0
 40
13.0
 40
14.0
 40
14.0
 40
14.0
 40
15.0
 40
15.0
 40
15.0
 40
16.0
 40
16.0
 40
16.0
 40
17.0
 40
17.0
 40
17.0
 40
18.0
 40
18.0
 40
18.0
 40
19.0
 40
19.0
 40
19.0
 40
20.0
 40
20.0
 40
20.0
 40
21.0
 40
21.0
 40
21.0
 40
22.0
 40
22.0
 40
22.0
 40
23.0
 40
23.0
 40
23.0
 40
24.0
 40
24.0
 40
24.0
 40
25.0
 40
25.0
 40
25.0
 40
26.0
 40
26.0
 40
26.0
 40
27.0
 40
27.0
 40
27.0
 40
28.0
 40
28.0
 40
28.0
 40
29.0
 40
29.0
 40
29.0
 40
29.0
 10
50.37125785416066
 20
239.8950900007901
 10
50.37125785416066
 20
239.8950900007901
 10
50.35971678428508
 20
239.6789102590907
 10
50.33784042795374
 20
239.2744560491224
 10
50.33026121788619
 20
239.1736870061788
 10
50.33232827517734
 20
239.0603433647141
 10
50.31389701433125
 20
238.9366644367936
 10
50.29494898916238
 20
238.8133300184217
 10
50.27393390670235
 20
238.6786267849484
 10
50.25136853127397
 20
238.5332437554709
 10
50.22621933423164
 20
238.3882052355418
 10
50.21002738545097
 20
238.2305921170917
 10
50.17316486375879
 20
238.066088807671
 10
50.13096244406449
 20
237.9027912816701
 10
50.08565943843345
 20
237.7295029787621
 10
50.038117120737
 20
237.546396153721
 10
49.82968884387939
 20
236.8224093374958
 10
49.50619437781442
 20
235.9475273390166
 10
48.91363795435145
 20
235.0728175953117
 10
48.33072779824718
 20
234.1986246159295
 10
47.51785751850248
 20
233.3016940063447
 10
46.44212645323322
 20
232.5735730755372
 10
45.36536185931838
 20
231.854237138217
 10
44.02711451807308
 20
231.3180080259379
 10
42.54865179057812
 20
231.1371405129622
 10
42.36485594644004
 20
231.1076849465634
 10
42.17658147817114
 20
231.1118190611457
 10
41.98865151945076
 20
231.0973496601076
 10
41.80020479640759
 20
231.0932155455253
 10
41.61193032813868
 20
231.064104488675
 10
41.41986625483601
 20
231.0801241826814
 10
41.03969996803869
 20
231.1035508319811
 10
40.65333250936792
 20
231.0959716219135
 10
40.26696505069715
 20
231.1698689200721
 10
39.48699543283659
 20
231.2578911097202
 10
38.71753335620603
 20
231.5011148509789
 10
37.96667479519584
 20
231.8111734446514
 10
37.2154717246371
 20
232.1291557579399
 10
36.51473930293729
 20
232.5828748333473
 10
35.85741508435162
 20
233.1032565063943
 10
35.21111517131875
 20
233.6406914020933
 10
34.64198539715548
 20
234.2806178884785
 10
34.14985350708753
 20
234.9834173674694
 10
33.67081297986355
 20
235.6972411520132
 10
33.30201550816755
 20
236.4877183111038
 10
33.03002521960708
 20
237.3143689727895
 10
32.77508815369859
 20
238.1508381566081
 10
32.6510647162296
 20
239.0141790852117
 10
32.63004963376957
 20
239.9016356822121
 10
32.64658609209877
 20
240.7563638721026
 10
32.75769042149808
 20
241.6489881123308
 10
33.00608180598459
 20
242.4839070031811
 10
33.26980386538047
 20
243.3155530533204
 10
33.63171114610596
 20
244.1136094224786
 10
34.10575628487634
 20
244.8367349648325
 10
34.59306504126493
 20
245.5488362016336
 10
35.15909422949148
 20
246.2009927769914
 10
35.80918374755812
 20
246.7451456088866
 10
36.46909178775773
 20
247.2734510015497
 10
37.17413057881411
 20
247.7354383061217
 10
37.93084580214924
 20
248.060483065155
 10
39.43428547191226
 20
248.725903258131
 10
41.07466768721397
 20
248.9270968344696
 10
42.55416394335452
 20
248.7498466717535
 10
44.05880939653738
 20
248.5610554391618
 10
45.40119085236498
 20
248.0141465308784
 10
46.48656818499294
 20
247.2830972689084
 10
47.57005071510402
 20
246.5451578159679
 10
48.38274874007445
 20
245.6341023148936
 10
48.95825194088544
 20
244.7473347369903
 10
49.54495170202349
 20
243.8607394138612
 10
49.8608669580209
 20
242.9791394791858
 10
50.06206053435949
 20
242.2510185483782
 10
50.10805255908758
 20
242.0670504494659
 10
50.15128850742746
 20
241.892556363138
 10
50.19211288892767
 20
241.7287420728144
 10
50.22708060810295
 20
241.5635497442966
 10
50.24206677346379
 20
241.4050753519751
 10
50.26566567753775
 20
241.2598645772719
 10
50.28685301477204
 20
241.1139647834715
 10
50.30649005903796
 20
240.9792615499983
 10
50.32440455556127
 20
240.855754876852
 10
50.34180228776177
 20
240.7320759489316
 10
50.33784042795374
 20
240.6182155431441
 10
50.34507512847276
 20
240.5167574811035
 10
50.36195609635048
 20
240.1117865068123
 10
50.37125785416066
 20
239.8950900007901
 10
50.37125785416066
 20
239.8950900007901
 97
        0
 92
        1
 93
        1
 72
     4
 94
        3
 73
     0
 74
     1
 95
      101
 96
       97
 40
0.0
 40
0.0
 40
0.0
 40
0.0
 40
1.0
 40
1.0
 40
1.0
 40
2.0
 40
2.0
 40
2.0
 40
3.0
 40
3.0
 40
3.0
 40
4.0
 40
4.0
 40
4.0
 40
5.0
 40
5.0
 40
5.0
 40
6.0
 40
6.0
 40
6.0
 40
7.0
 40
7.0
 40
7.0
 40
8.0
 40
8.0
 40
8.0
 40
9.0
 40
9.0
 40
9.0
 40
10.0
 40
10.0
 40
10.0
 40
11.0
 40
11.0
 40
11.0
 40
12.0
 40
12.0
 40
12.0
 40
13.0
 40
13.0
 40
13.0
 40
14.0
 40
14.0
 40
14.0
 40
15.0
 40
15.0
 40
15.0
 40
16.0
 40
16.0
 40
16.0
 40
17.0
 40
17.0
 40
17.0
 40
18.0
 40
18.0
 40
18.0
 40
19.0
 40
19.0
 40
19.0
 40
20.0
 40
20.0
 40
20.0
 40
21.0
 40
21.0
 40
21.0
 40
22.0
 40
22.0
 40
22.0
 40
23.0
 40
23.0
 40
23.0
 40
24.0
 40
24.0
 40
24.0
 40
25.0
 40
25.0
 40
25.0
 40
26.0
 40
26.0
 40
26.0
 40
27.0
 40
27.0
 40
27.0
 40
28.0
 40
28.0
 40
28.0
 40
29.0
 40
29.0
 40
29.0
 40
30.0
 40
30.0
 40
30.0
 40
31.0
 40
31.0
 40
31.0
 40
32.0
 40
32.0
 40
32.0
 40
32.0
 10
50.33095023698323
 20
239.8961235294357
 10
50.33095023698323
 20
239.8961235294357
 10
50.31854789323634
 20
240.1105807233925
 10
50.29512124393664
 20
240.5140014047153
 10
50.28668075999778
 20
240.6144259381103
 10
50.28857556251467
 20
240.727769579575
 10
50.26979979212005
 20
240.8504149788499
 10
50.24999049307986
 20
240.9728881233505
 10
50.22845864629706
 20
241.1067300829525
 10
50.20537650654588
 20
241.2507350742359
 10
50.18005505472929
 20
241.3947400655194
 10
50.16282957730304
 20
241.5518364196468
 10
50.12545029128808
 20
241.7147894360991
 10
50.08273110727099
 20
241.8768811786801
 10
50.03691133731716
 20
242.0493082077168
 10
49.98868000052367
 20
242.2310369945638
 10
49.77835692114916
 20
242.9498561675612
 10
49.45262314301879
 20
243.8173312107471
 10
48.86058348387861
 20
244.6834282157389
 10
48.27939587551696
 20
245.5502142398277
 10
47.46549206712668
 20
246.4347425056656
 10
46.39200031392284
 20
247.1425373731102
 10
45.32040336323588
 20
247.8427530304872
 10
43.98646239134714
 20
248.3593450985005
 10
42.53848875889663
 20
248.5231593888241
 10
42.35899928411511
 20
248.5508924074803
 10
42.16814099423227
 20
248.5448634903811
 10
41.98141681893173
 20
248.5572658341281
 10
41.79710421047086
 20
248.559849655742
 10
41.59642739845506
 20
248.5868936553012
 10
41.42193331212716
 20
248.5691514135522
 10
41.04710692333197
 20
248.54279643309
 10
40.66573485311482
 20
248.5438299617356
 10
40.28815238793143
 20
248.4659708037689
 10
39.52471922840007
 20
248.3715751874731
 10
38.77127684577593
 20
248.1257676246005
 10
38.03919405516034
 20
247.8153645213795
 10
37.30607773589918
 20
247.4970376985424
 10
36.62498235846528
 20
247.0457301899747
 10
35.98729518414554
 20
246.5317219435754
 10
35.36201035357269
 20
245.99928243633
 10
34.8085557638673
 20
245.3738253509829
 10
34.33089327483741
 20
244.6861842921271
 10
33.86683891297427
 20
243.9878634372669
 10
33.51096054934796
 20
243.2158175390225
 10
33.24878878292044
 20
242.4100097050225
 10
33.00298122004786
 20
241.5924885463727
 10
32.89118787155151
 20
240.7617037701047
 10
32.86707220315476
 20
239.8894055932395
 10
32.88670924742068
 20
239.0494913139356
 10
32.98592799739588
 20
238.1890787164944
 10
33.22484536929796
 20
237.3734523603615
 10
33.47874890656087
 20
236.5623046283594
 10
33.82739256966816
 20
235.7826795200474
 10
34.28714056217474
 20
235.0750569073771
 10
34.75980766275102
 20
234.3784586002596
 10
35.30964490219689
 20
233.7404269163913
 10
35.93906384735204
 20
233.2009249634012
 10
36.57933484328572
 20
232.6791652521601
 10
37.26473659007618
 20
232.219761769202
 10
38.00302055256522
 20
231.8943725006202
 10
38.74061549595721
 20
231.5769069516544
 10
39.50232610774595
 20
231.3236924334885
 10
40.27247720347355
 20
231.2251627026104
 10
40.65333250936792
 20
231.1469590350952
 10
41.04159477055558
 20
231.1455809969011
 10
41.42124429303011
 20
231.1211208189558
 10
41.60934650652475
 20
231.1042398510781
 10
41.79899901298775
 20
231.1319728697344
 10
41.98623995261108
 20
231.1349012008968
 10
42.17330863746015
 20
231.1481648185151
 10
42.36106634140626
 20
231.1428249205129
 10
42.54400091167303
 20
231.1712469582662
 10
44.01764050548865
 20
231.3428127134317
 10
45.35571559195969
 20
231.8697400679006
 10
46.43592528135977
 20
232.5821858142503
 10
47.51734075417969
 20
233.2994546942793
 10
48.33124456256997
 20
234.1986246159295
 10
48.90502521563833
 20
235.0778129837653
 10
49.49120821245359
 20
235.9549342943099
 10
49.80901827096789
 20
236.8298162927891
 10
50.01245115937189
 20
237.5527695803688
 10
50.05895994842276
 20
237.7357041506355
 10
50.10254040631117
 20
237.9088201987693
 10
50.14422606168269
 20
238.0716009604474
 10
50.17971054518077
 20
238.2355875055453
 10
50.1952134748644
 20
238.3926838596727
 10
50.21915688848688
 20
238.5370333605046
 10
50.24086099004396
 20
238.6817273708851
 10
50.26101479863267
 20
238.8155693304871
 10
50.27927380470449
 20
238.9383869845362
 10
50.29718830122779
 20
239.0610323838112
 10
50.29408771529106
 20
239.1750650443729
 10
50.30132241581009
 20
239.2758340873165
 10
50.32078720530175
 20
239.6808050616076
 10
50.33095023698323
 20
239.8961235294357
 10
50.33095023698323
 20
239.8961235294357
 97
        0
 75
     2
 76
     1
 98
        0
  0
ENDBLK
  5
6B
330
68
100
AcDbEntity
  8
0
100
AcDbBlockEnd
  0
ENDSEC
  0
SECTION
  2
ENTITIES
  0
INSERT
  5
3D
330
1F
100
AcDbEntity
  8
svg2
100
AcDbBlockReference
  2
block 2
 10
0.0
 20
0.0
 30
0.0
  0
INSERT
  5
41
330
1F
100
AcDbEntity
  8
svg2
100
AcDbBlockReference
  2
block 3
 10
0.0
 20
0.0
 30
0.0
  0
INSERT
  5
59
330
1F
100
AcDbEntity
  8
svg2
100
AcDbBlockReference
  2
block 4
 10
0.0
 20
0.0
 30
0.0
  0
ENDSEC
  0
SECTION
  2
OBJECTS
  0
DICTIONARY
  5
C
330
0
100
AcDbDictionary
281
     1
  3
ACAD_GROUP
350
D
  3
ACAD_LAYOUT
350
1A
  3
ACAD_MLINESTYLE
350
17
  3
ACAD_PLOTSETTINGS
350
19
  3
ACAD_PLOTSTYLENAME
350
E
  3
ACAD_TABLESTYLE
350
87
  3
ACAD_VISUALSTYLE
350
2A
  0
DICTIONARY
  5
D
102
{ACAD_REACTORS
330
C
102
}
330
C
100
AcDbDictionary
281
     1
  0
DICTIONARY
  5
1A
102
{ACAD_REACTORS
330
C
102
}
330
C
100
AcDbDictionary
281
     1
  3
Layout1
350
1E
  3
Layout2
350
26
  3
Model
350
22
  0
DICTIONARY
  5
17
102
{ACAD_REACTORS
330
C
102
}
330
C
100
AcDbDictionary
281
     1
  3
Standard
350
18
  0
DICTIONARY
  5
19
102
{ACAD_REACTORS
330
C
102
}
330
C
100
AcDbDictionary
281
     1
  0
ACDBDICTIONARYWDFLT
  5
E
102
{ACAD_REACTORS
330
C
102
}
330
C
100
AcDbDictionary
281
     1
  3
Normal
350
F
100
AcDbDictionaryWithDefault
340
F
  0
DICTIONARY
  5
87
102
{ACAD_REACTORS
330
C
102
}
330
C
100
AcDbDictionary
281
     1
  0
DICTIONARY
  5
2A
102
{ACAD_REACTORS
330
C
102
}
330
C
100
AcDbDictionary
281
     1
  3
2dWireframe
350
2F
  3
3D Hidden
350
31
  3
3dWireframe
350
30
  3
Basic
350
32
  3
Brighten
350
36
  3
ColorChange
350
3A
  3
Conceptual
350
34
  3
Dim
350
35
  3
Facepattern
350
39
  3
Flat
350
2B
  3
FlatWithEdges
350
2C
  3
Gouraud
350
2D
  3
GouraudWithEdges
350
2E
  3
Linepattern
350
38
  3
Realistic
350
33
  3
Thicken
350
37
  0
LAYOUT
  5
1E
102
{ACAD_REACTORS
330
1A
102
}
330
1A
100
AcDbPlotSettings
  1

  2
none_device
  4

  6

 40
0.0
 41
0.0
 42
0.0
 43
0.0
 44
0.0
 45
0.0
 46
0.0
 47
0.0
 48
0.0
 49
0.0
140
0.0
141
0.0
142
1.0
143
1.0
 70
   688
 72
     0
 73
     0
 74
     5
  7

 75
    16
 76
     0
 77
     2
 78
   300
147
1.0
148
0.0
149
0.0
100
AcDbLayout
  1
Layout1
 70
     1
 71
     1
 10
0.0
 20
0.0
 11
12.0
 21
9.0
 12
0.0
 22
0.0
 32
0.0
 14
1.000000000000000E+20
 24
1.000000000000000E+20
 34
1.000000000000000E+20
 15
-1.000000000000000E+20
 25
-1.000000000000000E+20
 35
-1.000000000000000E+20
146
0.0
 13
0.0
 23
0.0
 33
0.0
 16
1.0
 26
0.0
 36
0.0
 17
0.0
 27
1.0
 37
0.0
 76
     0
330
1B
  0
LAYOUT
  5
26
102
{ACAD_REACTORS
330
1A
102
}
330
1A
100
AcDbPlotSettings
  1

  2
none_device
  4

  6

 40
0.0
 41
0.0
 42
0.0
 43
0.0
 44
0.0
 45
0.0
 46
0.0
 47
0.0
 48
0.0
 49
0.0
140
0.0
141
0.0
142
1.0
143
1.0
 70
   688
 72
     0
 73
     0
 74
     5
  7

 75
    16
 76
     0
 77
     2
 78
   300
147
1.0
148
0.0
149
0.0
100
AcDbLayout
  1
Layout2
 70
     1
 71
     2
 10
0.0
 20
0.0
 11
0.0
 21
0.0
 12
0.0
 22
0.0
 32
0.0
 14
0.0
 24
0.0
 34
0.0
 15
0.0
 25
0.0
 35
0.0
146
0.0
 13
0.0
 23
0.0
 33
0.0
 16
1.0
 26
0.0
 36
0.0
 17
0.0
 27
1.0
 37
0.0
 76
     0
330
23
  0
LAYOUT
  5
22
102
{ACAD_REACTORS
330
1A
102
}
330
1A
100
AcDbPlotSettings
  1

  2
none_device
  4

  6

 40
0.0
 41
0.0
 42
0.0
 43
0.0
 44
0.0
 45
0.0
 46
0.0
 47
0.0
 48
0.0
 49
0.0
140
0.0
141
0.0
142
1.0
143
1.0
 70
  1712
 72
     0
 73
     0
 74
     0
  7

 75
     0
 76
     0
 77
     2
 78
   300
147
1.0
148
0.0
149
0.0
100
AcDbLayout
  1
Model
 70
     1
 71
     0
 10
0.0
 20
0.0
 11
12.0
 21
9.0
 12
0.0
 22
0.0
 32
0.0
 14
1.000000000000000E+20
 24
1.000000000000000E+20
 34
1.000000000000000E+20
 15
-1.000000000000000E+20
 25
-1.000000000000000E+20
 35
-1.000000000000000E+20
146
0.0
 13
0.0
 23
0.0
 33
0.0
 16
1.0
 26
0.0
 36
0.0
 17
0.0
 27
1.0
 37
0.0
 76
     0
330
1F
331
29
  0
MLINESTYLE
  5
18
102
{ACAD_REACTORS
330
17
102
}
330
17
100
AcDbMlineStyle
  2
Standard
 70
     0
  3

 62
   256
 51
90.0
 52
90.0
 71
     2
 49
0.5
 62
   256
  6
BYLAYER
 49
-0.5
 62
   256
  6
BYLAYER
  0
ACDBPLACEHOLDER
  5
F
102
{ACAD_REACTORS
330
E
102
}
330
E
  0
VISUALSTYLE
  5
2F
102
{ACAD_REACTORS
330
2A
102
}
330
2A
100
AcDbVisualStyle
  2
2dWireframe
 70
     4
 71
     0
 72
     2
 73
     0
 90
        0
 40
-0.6
 41
-30.0
 62
     5
 63
     7
421
 16777215
 74
     1
 91
        4
 64
     7
 65
   257
 75
     1
175
     1
 42
1.0
 92
        0
 66
   257
 43
1.0
 76
     1
 77
     6
 78
     2
 67
     7
 79
     5
170
     0
171
     0
290
     0
174
     0
 93
        1
 44
0.0
173
     0
291
     0
 45
0.0
1001
ACAD
1000
AcDbSavedByObjectVersion
1070
     0
  0
VISUALSTYLE
  5
31
102
{ACAD_REACTORS
330
2A
102
}
330
2A
100
AcDbVisualStyle
  2
3D Hidden
 70
     6
 71
     1
 72
     2
 73
     2
 90
        0
 40
-0.6
 41
-30.0
 62
     5
 63
     7
421
 16777215
 74
     2
 91
        2
 64
     7
 65
   257
 75
     2
175
     1
 42
40.0
 92
        0
 66
   257
 43
1.0
 76
     1
 77
     6
 78
     2
 67
     7
 79
     3
170
     0
171
     0
290
     0
174
     0
 93
        1
 44
0.0
173
     0
291
     0
 45
0.0
1001
ACAD
1000
AcDbSavedByObjectVersion
1070
     0
  0
VISUALSTYLE
  5
30
102
{ACAD_REACTORS
330
2A
102
}
330
2A
100
AcDbVisualStyle
  2
3dWireframe
 70
     5
 71
     0
 72
     2
 73
     0
 90
        0
 40
-0.6
 41
-30.0
 62
     5
 63
     7
421
 16777215
 74
     1
 91
        4
 64
     7
 65
   257
 75
     1
175
     1
 42
1.0
 92
        0
 66
   257
 43
1.0
 76
     1
 77
     6
 78
     2
 67
     7
 79
     5
170
     0
171
     0
290
     0
174
     0
 93
        1
 44
0.0
173
     0
291
     0
 45
0.0
1001
ACAD
1000
AcDbSavedByObjectVersion
1070
     0
  0
VISUALSTYLE
  5
32
102
{ACAD_REACTORS
330
2A
102
}
330
2A
100
AcDbVisualStyle
  2
Basic
 70
     7
 71
     1
 72
     0
 73
     1
 90
        0
 40
-0.6
 41
-30.0
 62
     5
 63
     7
421
 16777215
 74
     0
 91
        4
 64
     7
 65
   257
 75
     1
175
     1
 42
1.0
 92
        8
 66
     7
 43
1.0
 76
     1
 77
     6
 78
     2
 67
     7
 79
     5
170
     0
171
     0
290
     0
174
     0
 93
        1
 44
0.0
173
     0
291
     1
 45
0.0
1001
ACAD
1000
AcDbSavedByObjectVersion
1070
     0
  0
VISUALSTYLE
  5
36
102
{ACAD_REACTORS
330
2A
102
}
330
2A
100
AcDbVisualStyle
  2
Brighten
 70
    12
 71
     2
 72
     2
 73
     0
 90
        0
 40
-0.6
 41
-30.0
 62
     5
 63
     7
421
 16777215
 74
     1
 91
        4
 64
     7
 65
   257
 75
     1
175
     1
 42
1.0
 92
        8
 66
     7
 43
1.0
 76
     1
 77
     6
 78
     2
 67
     7
 79
     5
170
     0
171
     0
290
     0
174
     0
 93
        1
 44
50.0
173
     0
291
     1
 45
0.0
1001
ACAD
1000
AcDbSavedByObjectVersion
1070
     0
  0
VISUALSTYLE
  5
3A
102
{ACAD_REACTORS
330
2A
102
}
330
2A
100
AcDbVisualStyle
  2
ColorChange
 70
    16
 71
     2
 72
     2
 73
     3
 90
        0
 40
-0.6
 41
-30.0
 62
     5
 63
     8
421
  8421504
 74
     1
 91
        4
 64
     7
 65
   257
 75
     1
175
     1
 42
1.0
 92
        8
 66
     8
424
  8421504
 43
1.0
 76
     1
 77
     6
 78
     2
 67
     7
 79
     5
170
     0
171
     0
290
     0
174
     0
 93
        1
 44
0.0
173
     0
291
     1
 45
0.0
1001
ACAD
1000
AcDbSavedByObjectVersion
1070
     0
  0
VISUALSTYLE
  5
34
102
{ACAD_REACTORS
330
2A
102
}
330
2A
100
AcDbVisualStyle
  2
Conceptual
 70
     9
 71
     3
 72
     2
 73
     0
 90
        0
 40
-0.6
 41
-30.0
 62
     5
 63
     7
421
 16777215
 74
     2
 91
        2
 64
     7
 65
   257
 75
     1
175
     1
 42
40.0
 92
        8
 66
     7
 43
1.0
 76
     1
 77
     6
 78
     2
 67
     7
 79
     3
170
     0
171
     0
290
     0
174
     0
 93
        1
 44
0.0
173
     0
291
     0
 45
0.0
1001
ACAD
1000
AcDbSavedByObjectVersion
1070
     0
  0
VISUALSTYLE
  5
35
102
{ACAD_REACTORS
330
2A
102
}
330
2A
100
AcDbVisualStyle
  2
Dim
 70
    11
 71
     2
 72
     2
 73
     0
 90
        0
 40
-0.6
 41
-30.0
 62
     5
 63
     7
421
 16777215
 74
     1
 91
        4
 64
     7
 65
   257
 75
     1
175
     1
 42
1.0
 92
        8
 66
     7
 43
1.0
 76
     1
 77
     6
 78
     2
 67
     7
 79
     5
170
     0
171
     0
290
     0
174
     0
 93
        1
 44
-50.0
173
     0
291
     1
 45
0.0
1001
ACAD
1000
AcDbSavedByObjectVersion
1070
     0
  0
VISUALSTYLE
  5
39
102
{ACAD_REACTORS
330
2A
102
}
330
2A
100
AcDbVisualStyle
  2
Facepattern
 70
    15
 71
     2
 72
     2
 73
     0
 90
        0
 40
-0.6
 41
-30.0
 62
     5
 63
     7
421
 16777215
 74
     1
 91
        4
 64
     7
 65
   257
 75
     1
175
     1
 42
1.0
 92
        8
 66
     7
 43
1.0
 76
     1
 77
     6
 78
     2
 67
     7
 79
     5
170
     0
171
     0
290
     0
174
     0
 93
        1
 44
0.0
173
     0
291
     1
 45
0.0
1001
ACAD
1000
AcDbSavedByObjectVersion
1070
     0
  0
VISUALSTYLE
  5
2B
102
{ACAD_REACTORS
330
2A
102
}
330
2A
100
AcDbVisualStyle
  2
Flat
 70
     0
 71
     2
 72
     1
 73
     1
 90
        2
 40
-0.6
 41
30.0
 62
     5
 63
     7
421
 16777215
 74
     0
 91
        4
 64
     7
 65
   257
 75
     1
175
     1
 42
1.0
 92
        8
 66
     7
 43
1.0
 76
     1
 77
     6
 78
     2
 67
     7
 79
     5
170
     0
171
     0
290
     0
174
     0
 93
       13
 44
0.0
173
     0
291
     1
 45
0.0
1001
ACAD
1000
AcDbSavedByObjectVersion
1070
     0
  0
VISUALSTYLE
  5
2C
102
{ACAD_REACTORS
330
2A
102
}
330
2A
100
AcDbVisualStyle
  2
FlatWithEdges
 70
     1
 71
     2
 72
     1
 73
     1
 90
        2
 40
-0.6
 41
30.0
 62
     5
 63
     7
421
 16777215
 74
     1
 91
        4
 64
     7
 65
   257
 75
     1
175
     1
 42
1.0
 92
        0
 66
   257
 43
1.0
 76
     1
 77
     6
 78
     2
 67
     7
 79
     5
170
     0
171
     0
290
     0
174
     0
 93
       13
 44
0.0
173
     0
291
     1
 45
0.0
1001
ACAD
1000
AcDbSavedByObjectVersion
1070
     0
  0
VISUALSTYLE
  5
2D
102
{ACAD_REACTORS
330
2A
102
}
330
2A
100
AcDbVisualStyle
  2
Gouraud
 70
     2
 71
     2
 72
     2
 73
     1
 90
        2
 40
-0.6
 41
30.0
 62
     5
 63
     7
421
 16777215
 74
     0
 91
        4
 64
     7
 65
   257
 75
     1
175
     1
 42
1.0
 92
        0
 66
     7
 43
1.0
 76
     1
 77
     6
 78
     2
 67
     7
 79
     5
170
     0
171
     0
290
     0
174
     0
 93
       13
 44
0.0
173
     0
291
     1
 45
0.0
1001
ACAD
1000
AcDbSavedByObjectVersion
1070
     0
  0
VISUALSTYLE
  5
2E
102
{ACAD_REACTORS
330
2A
102
}
330
2A
100
AcDbVisualStyle
  2
GouraudWithEdges
 70
     3
 71
     2
 72
     2
 73
     1
 90
        2
 40
-0.6
 41
30.0
 62
     5
 63
     7
421
 16777215
 74
     1
 91
        4
 64
     7
 65
   257
 75
     1
175
     1
 42
1.0
 92
        0
 66
   257
 43
1.0
 76
     1
 77
     6
 78
     2
 67
     7
 79
     5
170
     0
171
     0
290
     0
174
     0
 93
       13
 44
0.0
173
     0
291
     1
 45
0.0
1001
ACAD
1000
AcDbSavedByObjectVersion
1070
     0
  0
VISUALSTYLE
  5
38
102
{ACAD_REACTORS
330
2A
102
}
330
2A
100
AcDbVisualStyle
  2
Linepattern
 70
    14
 71
     2
 72
     2
 73
     0
 90
        0
 40
-0.6
 41
-30.0
 62
     5
 63
     7
421
 16777215
 74
     1
 91
        4
 64
     7
 65
   257
 75
     7
175
     7
 42
1.0
 92
        8
 66
     7
 43
1.0
 76
     1
 77
     6
 78
     2
 67
     7
 79
     5
170
     0
171
     0
290
     0
174
     0
 93
        1
 44
0.0
173
     0
291
     1
 45
0.0
1001
ACAD
1000
AcDbSavedByObjectVersion
1070
     0
  0
VISUALSTYLE
  5
33
102
{ACAD_REACTORS
330
2A
102
}
330
2A
100
AcDbVisualStyle
  2
Realistic
 70
     8
 71
     2
 72
     2
 73
     0
 90
        0
 40
-0.6
 41
-30.0
 62
     5
 63
     7
421
 16777215
 74
     1
 91
        0
 64
     7
 65
   257
 75
     1
175
     1
 42
1.0
 92
        8
 66
     8
424
  7895160
 43
1.0
 76
     1
 77
     6
 78
     2
 67
     7
 79
     5
170
     0
171
     0
290
     0
174
     0
 93
       13
 44
0.0
173
     0
291
     0
 45
0.0
1001
ACAD
1000
AcDbSavedByObjectVersion
1070
     0
  0
VISUALSTYLE
  5
37
102
{ACAD_REACTORS
330
2A
102
}
330
2A
100
AcDbVisualStyle
  2
Thicken
 70
    13
 71
     2
 72
     2
 73
     0
 90
        0
 40
-0.6
 41
-30.0
 62
     5
 63
     7
421
 16777215
 74
     1
 91
        4
 64
     7
 65
   257
 75
     1
175
     1
 42
1.0
 92
       12
 66
     7
 43
1.0
 76
     1
 77
     6
 78
     2
 67
     7
 79
     5
170
     0
171
     0
290
     0
174
     0
 93
        1
 44
0.0
173
     0
291
     1
 45
0.0
1001
ACAD
1000
AcDbSavedByObjectVersion
1070
     0
  0
ENDSEC
  0
EOF
