<?xml version="1.0" encoding="utf-8"?>
<!-- Generator: Adobe Illustrator 16.0.0, SVG Export Plug-In . SVG Version: 6.00 Build 0)  -->
<!DOCTYPE svg PUBLIC "-//W3C//DTD SVG 1.1//EN" "http://www.w3.org/Graphics/SVG/1.1/DTD/svg11.dtd">
<svg version="1.1"
	 id="svg2" xmlns:osb="http://www.openswatchbook.org/uri/2009/osb" xmlns:dc="http://purl.org/dc/elements/1.1/" xmlns:cc="http://creativecommons.org/ns#" xmlns:rdf="http://www.w3.org/1999/02/22-rdf-syntax-ns#" xmlns:svg="http://www.w3.org/2000/svg" xmlns:sodipodi="http://sodipodi.sourceforge.net/DTD/sodipodi-0.dtd" xmlns:inkscape="http://www.inkscape.org/namespaces/inkscape" inkscape:export-ydpi="90" inkscape:export-xdpi="90" inkscape:export-filename="/home/xavigisbeg/Desktop/Link to VIII - PROJECT - ERASMUS/Fiducial Markers/Fiducials for Tests/PiTag/PiTag0_print.png" inkscape:version="0.48.4 r9939" sodipodi:docname="PiTag0.svg"
	 xmlns="http://www.w3.org/2000/svg" xmlns:xlink="http://www.w3.org/1999/xlink" x="0px" y="0px" width="744.094px"
	 height="1052.363px" viewBox="0 0 744.094 1052.363" enable-background="new 0 0 744.094 1052.363" xml:space="preserve">
<sodipodi:namedview  units="mm" showgrid="false" inkscape:cy="1001.5603" inkscape:cx="365.42203" inkscape:zoom="1.979899" borderopacity="1.0" bordercolor="#666666" pagecolor="#ffffff" id="base" inkscape:window-maximized="1" inkscape:window-y="24" inkscape:window-x="0" inkscape:window-height="744" inkscape:window-width="1366" inkscape:pageshadow="2" inkscape:document-units="mm" inkscape:pageopacity="0.0" inkscape:current-layer="layer1">
	</sodipodi:namedview>
<g id="layer1" transform="translate(0,-3.6171875e-6)" inkscape:label="Borders" inkscape:groupmode="layer">
	
		<rect id="rect5390" x="99.687" y="166.8" fill="#FFFFFF" stroke="#000000" stroke-width="0.3543" width="555.377" height="555.377"/>
	
		<rect id="rect3158" x="174.567" y="241.681" fill="#FFFFFF" stroke="#000000" stroke-width="0.3543" width="405.617" height="405.616"/>
	<text transform="matrix(1 0 0 1 364.3508 76.9429)" font-family="'MyriadPro-Regular'" font-size="12">#1</text>
	<path id="path3878" sodipodi:nodetypes="cc" inkscape:connector-curvature="0" stroke="#000000" stroke-width="0.7122" d="
		M135.198,131.607h481.992"/>
	<text transform="matrix(1 0 0 1 356.0784 121.5063)" font-family="'MyriadPro-Regular'" font-size="12">136,23</text>
</g>
<g id="layer2" transform="translate(0,-3.6171875e-6)" inkscape:label="Circles" sodipodi:insensitive="true" inkscape:groupmode="layer">
	
		<path id="path5431_12_" sodipodi:type="arc" sodipodi:cx="147.85715" sodipodi:ry="22.142857" sodipodi:rx="22.142857" sodipodi:cy="211.6479" fill="#FFFFFF" stroke="#000000" stroke-width="0.2835" d="
		M317.434,203.379c0,20.195-16.371,36.567-36.567,36.567s-36.567-16.372-36.567-36.567c0-20.196,16.371-36.567,36.567-36.567
		S317.434,183.183,317.434,203.379z"/>
	
		<path id="path5431_11_" sodipodi:type="arc" sodipodi:cx="147.85715" sodipodi:ry="22.142857" sodipodi:rx="22.142857" sodipodi:cy="211.6479" fill="#FFFFFF" stroke="#000000" stroke-width="0.2835" d="
		M438.111,203.379c0,20.195-16.371,36.567-36.567,36.567s-36.567-16.372-36.567-36.567c0-20.196,16.371-36.567,36.567-36.567
		S438.111,183.183,438.111,203.379z"/>
	
		<path id="path5431_10_" sodipodi:type="arc" sodipodi:cx="147.85715" sodipodi:ry="22.142857" sodipodi:rx="22.142857" sodipodi:cy="211.6479" fill="#FFFFFF" stroke="#000000" stroke-width="0.2835" d="
		M655.327,203.379c0,20.195-16.371,36.567-36.567,36.567s-36.567-16.372-36.567-36.567c0-20.196,16.371-36.567,36.567-36.567
		S655.327,183.183,655.327,203.379z"/>
	
		<path id="path5431_9_" sodipodi:type="arc" sodipodi:cx="147.85715" sodipodi:ry="22.142857" sodipodi:rx="22.142857" sodipodi:cy="211.6479" fill="#FFFFFF" stroke="#000000" stroke-width="0.2835" d="
		M655.321,324.053c0,20.195-16.371,36.567-36.567,36.567s-36.567-16.372-36.567-36.567c0-20.196,16.371-36.567,36.567-36.567
		S655.321,303.857,655.321,324.053z"/>
	
		<path id="path5431_8_" sodipodi:type="arc" sodipodi:cx="147.85715" sodipodi:ry="22.142857" sodipodi:rx="22.142857" sodipodi:cy="211.6479" fill="#FFFFFF" stroke="#000000" stroke-width="0.2835" d="
		M655.321,541.272c0,20.195-16.371,36.567-36.567,36.567s-36.567-16.372-36.567-36.567s16.371-36.566,36.567-36.566
		S655.321,521.077,655.321,541.272z"/>
	
		<path id="path5431_7_" sodipodi:type="arc" sodipodi:cx="147.85715" sodipodi:ry="22.142857" sodipodi:rx="22.142857" sodipodi:cy="211.6479" fill="#FFFFFF" stroke="#000000" stroke-width="0.2835" d="
		M655.321,686.083c0,20.195-16.371,36.567-36.567,36.567s-36.567-16.372-36.567-36.567s16.371-36.566,36.567-36.566
		S655.321,665.888,655.321,686.083z"/>
	
		<path id="path5431_6_" sodipodi:type="arc" sodipodi:cx="147.85715" sodipodi:ry="22.142857" sodipodi:rx="22.142857" sodipodi:cy="211.6479" fill="#FFFFFF" stroke="#000000" stroke-width="0.2835" d="
		M510.516,686.083c0,20.195-16.371,36.567-36.567,36.567s-36.567-16.372-36.567-36.567s16.371-36.566,36.567-36.566
		S510.516,665.888,510.516,686.083z"/>
	
		<path id="path5431_5_" sodipodi:type="arc" sodipodi:cx="147.85715" sodipodi:ry="22.142857" sodipodi:rx="22.142857" sodipodi:cy="211.6479" fill="#FFFFFF" stroke="#000000" stroke-width="0.2835" d="
		M293.301,686.083c0,20.195-16.371,36.567-36.567,36.567s-36.567-16.372-36.567-36.567s16.371-36.566,36.567-36.566
		S293.301,665.888,293.301,686.083z"/>
	
		<path id="path5431_4_" sodipodi:type="arc" sodipodi:cx="147.85715" sodipodi:ry="22.142857" sodipodi:rx="22.142857" sodipodi:cy="211.6479" fill="#FFFFFF" stroke="#000000" stroke-width="0.2835" d="
		M172.623,686.083c0,20.195-16.371,36.567-36.567,36.567s-36.567-16.372-36.567-36.567s16.371-36.566,36.567-36.566
		S172.623,665.888,172.623,686.083z"/>
	
		<path id="path5431_3_" sodipodi:type="arc" sodipodi:cx="147.85715" sodipodi:ry="22.142857" sodipodi:rx="22.142857" sodipodi:cy="211.6479" fill="#FFFFFF" stroke="#000000" stroke-width="0.2835" d="
		M172.623,468.864c0,20.195-16.371,36.567-36.567,36.567s-36.567-16.372-36.567-36.567c0-20.196,16.371-36.567,36.567-36.567
		S172.623,448.668,172.623,468.864z"/>
	
		<path id="path5431_2_" sodipodi:type="arc" sodipodi:cx="147.85715" sodipodi:ry="22.142857" sodipodi:rx="22.142857" sodipodi:cy="211.6479" fill="#FFFFFF" stroke="#000000" stroke-width="0.2835" d="
		M172.623,348.19c0,20.195-16.371,36.567-36.567,36.567s-36.567-16.372-36.567-36.567c0-20.196,16.371-36.567,36.567-36.567
		S172.623,327.995,172.623,348.19z"/>
	
		<path id="path5431_1_" sodipodi:type="arc" sodipodi:cx="147.85715" sodipodi:ry="22.142857" sodipodi:rx="22.142857" sodipodi:cy="211.6479" fill="#FFFFFF" stroke="#000000" stroke-width="0.2835" d="
		M172.623,203.379c0,20.195-16.371,36.567-36.567,36.567s-36.567-16.372-36.567-36.567c0-20.196,16.371-36.567,36.567-36.567
		S172.623,183.183,172.623,203.379z"/>
	
		<g id="path5431" sodipodi:type="arc" sodipodi:cx="147.85715" sodipodi:ry="22.142857" sodipodi:rx="22.142857" sodipodi:cy="211.6479">
		<circle cx="136.056" cy="203.379" r="31.186"/>
		<path d="M167.313,203.381c0,0-0.041,0.766-0.118,2.199c-0.028,0.357-0.02,0.759-0.085,1.197c-0.068,0.437-0.142,0.914-0.222,1.429
			c-0.089,0.514-0.147,1.073-0.277,1.656c-0.15,0.578-0.31,1.192-0.479,1.841c-0.738,2.565-1.885,5.665-3.984,8.765
			c-2.066,3.097-4.946,6.275-8.757,8.855c-3.816,2.549-8.558,4.449-13.796,5.09c-0.651,0.104-1.318,0.09-1.984,0.141
			c-0.668,0.015-1.335,0.118-2.016,0.061c-1.347-0.083-2.716-0.056-4.085-0.318c-2.764-0.312-5.49-1.174-8.15-2.272
			c-2.662-1.127-5.145-2.735-7.474-4.579c-2.29-1.904-4.307-4.171-6.051-6.662c-1.697-2.529-3.004-5.33-3.968-8.259
			c-0.903-2.964-1.342-6.023-1.417-9.167c0.059-3.029,0.453-6.192,1.332-9.15c0.935-2.947,2.217-5.775,3.897-8.337
			c1.727-2.523,3.732-4.834,6.036-6.762c2.338-1.872,4.836-3.509,7.518-4.661c5.327-2.357,11.139-3.07,16.382-2.442
			c5.331,0.669,10.087,2.606,13.933,5.197c3.839,2.615,6.719,5.843,8.758,8.985c2.079,3.141,3.198,6.265,3.911,8.845
			c0.163,0.652,0.316,1.27,0.461,1.851c0.124,0.585,0.177,1.146,0.261,1.661c0.075,0.517,0.144,0.994,0.208,1.432
			c0.061,0.438,0.048,0.842,0.073,1.201C167.28,202.613,167.313,203.381,167.313,203.381z M167.17,203.377
			c0,0-0.044-0.76-0.127-2.189c-0.03-0.356-0.023-0.758-0.09-1.192c-0.07-0.434-0.146-0.908-0.228-1.419
			c-0.09-0.51-0.151-1.066-0.283-1.644c-0.152-0.574-0.314-1.185-0.485-1.829c-0.745-2.547-1.899-5.621-3.997-8.69
			c-2.059-3.071-4.943-6.205-8.747-8.713c-3.797-2.481-8.523-4.312-13.654-4.892c-0.636-0.098-1.313-0.077-1.974-0.121
			c-0.653-0.009-1.364-0.105-1.982-0.042c-1.328,0.093-2.68,0.09-4.018,0.366c-2.705,0.334-5.375,1.205-7.969,2.305
			c-2.597,1.128-5.01,2.727-7.27,4.548c-2.216,1.887-4.177,4.103-5.869,6.54c-1.645,2.474-2.905,5.209-3.834,8.065
			c-0.871,2.896-1.268,5.84-1.353,8.931c0.07,2.976,0.421,6.025,1.268,8.915c0.899,2.874,2.135,5.636,3.764,8.144
			c1.674,2.468,3.623,4.729,5.853,6.64c2.269,1.849,4.697,3.477,7.314,4.63c2.613,1.125,5.312,2.022,8.041,2.371
			c1.349,0.277,2.725,0.282,4.07,0.369c0.667,0.06,1.339-0.039,2.002-0.049c0.663-0.047,1.328-0.028,1.976-0.129
			c5.222-0.608,9.963-2.475,13.79-4.999c3.832-2.542,6.716-5.728,8.749-8.843c2.078-3.108,3.204-6.208,3.924-8.77
			c0.165-0.648,0.32-1.261,0.467-1.838c0.126-0.581,0.181-1.138,0.266-1.649c0.077-0.513,0.148-0.987,0.213-1.422
			c0.063-0.435,0.052-0.839,0.078-1.196C167.134,204.14,167.17,203.377,167.17,203.377z"/>
	</g>
	
		<path id="path3030" sodipodi:type="arc" sodipodi:cx="147.85715" sodipodi:ry="22.142857" sodipodi:rx="22.142857" sodipodi:cy="211.6479" stroke="#000000" d="
		M649.946,203.379c0,17.223-13.962,31.186-31.186,31.186c-17.223,0-31.186-13.962-31.186-31.186
		c0-17.224,13.963-31.186,31.186-31.186C635.984,172.193,649.946,186.155,649.946,203.379z"/>
	
		<path id="path3032" sodipodi:type="arc" sodipodi:cx="147.85715" sodipodi:ry="22.142857" sodipodi:rx="22.142857" sodipodi:cy="211.6479" stroke="#000000" d="
		M432.729,203.379c0,17.223-13.962,31.186-31.186,31.186s-31.186-13.962-31.186-31.186c0-17.224,13.962-31.186,31.186-31.186
		S432.729,186.155,432.729,203.379z"/>
	
		<path id="path3034" sodipodi:type="arc" sodipodi:cx="147.85715" sodipodi:ry="22.142857" sodipodi:rx="22.142857" sodipodi:cy="211.6479" stroke="#000000" d="
		M312.053,203.379c0,17.223-13.963,31.186-31.186,31.186c-17.224,0-31.186-13.962-31.186-31.186
		c0-17.224,13.962-31.186,31.186-31.186C298.09,172.193,312.053,186.155,312.053,203.379z"/>
	
		<path id="path3036" sodipodi:type="arc" sodipodi:cx="147.85715" sodipodi:ry="22.142857" sodipodi:rx="22.142857" sodipodi:cy="211.6479" stroke="#000000" d="
		M167.241,348.19c0,17.224-13.962,31.186-31.186,31.186s-31.186-13.962-31.186-31.186c0-17.223,13.962-31.186,31.186-31.186
		S167.241,330.967,167.241,348.19z"/>
	
		<path id="path3038" sodipodi:type="arc" sodipodi:cx="147.85715" sodipodi:ry="22.142857" sodipodi:rx="22.142857" sodipodi:cy="211.6479" stroke="#000000" d="
		M167.241,468.864c0,17.224-13.962,31.186-31.186,31.186s-31.186-13.962-31.186-31.186c0-17.223,13.962-31.186,31.186-31.186
		S167.241,451.642,167.241,468.864z"/>
	
		<path id="path3040" sodipodi:type="arc" sodipodi:cx="147.85715" sodipodi:ry="22.142857" sodipodi:rx="22.142857" sodipodi:cy="211.6479" stroke="#000000" d="
		M167.241,686.083c0,17.223-13.962,31.186-31.186,31.186s-31.186-13.963-31.186-31.186s13.962-31.186,31.186-31.186
		S167.241,668.861,167.241,686.083z"/>
	
		<path id="path3042" sodipodi:type="arc" sodipodi:cx="147.85715" sodipodi:ry="22.142857" sodipodi:rx="22.142857" sodipodi:cy="211.6479" stroke="#000000" d="
		M505.135,686.083c0,17.223-13.963,31.186-31.186,31.186c-17.224,0-31.187-13.963-31.187-31.186s13.963-31.186,31.187-31.186
		C491.172,654.898,505.135,668.861,505.135,686.083z"/>
	
		<path id="path3044" sodipodi:type="arc" sodipodi:cx="147.85715" sodipodi:ry="22.142857" sodipodi:rx="22.142857" sodipodi:cy="211.6479" stroke="#000000" d="
		M287.919,686.083c0,17.223-13.962,31.186-31.186,31.186c-17.223,0-31.186-13.963-31.186-31.186s13.963-31.186,31.186-31.186
		C273.957,654.898,287.919,668.861,287.919,686.083z"/>
	
		<path id="path3046" sodipodi:type="arc" sodipodi:cx="147.85715" sodipodi:ry="22.142857" sodipodi:rx="22.142857" sodipodi:cy="211.6479" stroke="#000000" d="
		M649.939,324.053c0,17.223-13.962,31.186-31.186,31.186s-31.186-13.962-31.186-31.186s13.962-31.186,31.186-31.186
		S649.939,306.83,649.939,324.053z"/>
	
		<path id="path3048" sodipodi:type="arc" sodipodi:cx="147.85715" sodipodi:ry="22.142857" sodipodi:rx="22.142857" sodipodi:cy="211.6479" stroke="#000000" d="
		M649.939,541.273c0,17.223-13.962,31.186-31.186,31.186s-31.186-13.963-31.186-31.186c0-17.224,13.962-31.186,31.186-31.186
		S649.939,524.049,649.939,541.273z"/>
	
		<path id="path3050" sodipodi:type="arc" sodipodi:cx="147.85715" sodipodi:ry="22.142857" sodipodi:rx="22.142857" sodipodi:cy="211.6479" stroke="#000000" d="
		M649.939,686.083c0,17.223-13.962,31.186-31.186,31.186s-31.186-13.963-31.186-31.186s13.962-31.186,31.186-31.186
		S649.939,668.861,649.939,686.083z"/>
</g>
</svg>
