<?xml version="1.0" encoding="UTF-8" standalone="no"?>
<!-- Created with Inkscape (http://www.inkscape.org/) -->

<svg
   xmlns:osb="http://www.openswatchbook.org/uri/2009/osb"
   xmlns:dc="http://purl.org/dc/elements/1.1/"
   xmlns:cc="http://creativecommons.org/ns#"
   xmlns:rdf="http://www.w3.org/1999/02/22-rdf-syntax-ns#"
   xmlns:svg="http://www.w3.org/2000/svg"
   xmlns="http://www.w3.org/2000/svg"
   xmlns:xlink="http://www.w3.org/1999/xlink"
   xmlns:sodipodi="http://sodipodi.sourceforge.net/DTD/sodipodi-0.dtd"
   xmlns:inkscape="http://www.inkscape.org/namespaces/inkscape"
   sodipodi:docname="PiTag0.svg"
   inkscape:version="0.48.4 r9939"
   version="1.1"
   id="svg2"
   height="1052.3622"
   width="744.09448"
   inkscape:export-filename="/home/xavigisbeg/Desktop/Link to VIII - PROJECT - ERASMUS/Fiducial Markers/Fiducials for Tests/PiTag/PiTag0_print.png"
   inkscape:export-xdpi="90"
   inkscape:export-ydpi="90">
  <defs
     id="defs4">
    <linearGradient
       inkscape:collect="always"
       id="linearGradient3870">
      <stop
         style="stop-color:#000000;stop-opacity:1;"
         offset="0"
         id="stop3872" />
      <stop
         style="stop-color:#000000;stop-opacity:0;"
         offset="1"
         id="stop3874" />
    </linearGradient>
    <linearGradient
       id="linearGradient5364"
       osb:paint="solid">
      <stop
         style="stop-color:#000000;stop-opacity:1;"
         offset="0"
         id="stop5366" />
    </linearGradient>
    <linearGradient
       inkscape:collect="always"
       xlink:href="#linearGradient3870"
       id="linearGradient3876"
       x1="99.500023"
       y1="137.16399"
       x2="647.50775"
       y2="130.09291"
       gradientUnits="userSpaceOnUse"
       gradientTransform="translate(13.637059,1.0101525)" />
  </defs>
  <sodipodi:namedview
     id="base"
     pagecolor="#ffffff"
     bordercolor="#666666"
     borderopacity="1.0"
     inkscape:pageopacity="0.0"
     inkscape:pageshadow="2"
     inkscape:zoom="1.979899"
     inkscape:cx="365.42203"
     inkscape:cy="1001.5603"
     inkscape:document-units="mm"
     inkscape:current-layer="layer1"
     showgrid="false"
     inkscape:window-width="1366"
     inkscape:window-height="744"
     inkscape:window-x="0"
     inkscape:window-y="24"
     inkscape:window-maximized="1"
     units="mm" />
  <metadata
     id="metadata7">
    <rdf:RDF>
      <cc:Work
         rdf:about="">
        <dc:format>image/svg+xml</dc:format>
        <dc:type
           rdf:resource="http://purl.org/dc/dcmitype/StillImage" />
        <dc:title></dc:title>
      </cc:Work>
    </rdf:RDF>
  </metadata>
  <g
     inkscape:label="Borders"
     inkscape:groupmode="layer"
     id="layer1"
     transform="translate(0,-3.6171875e-6)">
    <rect
       y="166.80008"
       x="99.686745"
       height="555.37732"
       width="555.37732"
       id="rect5390"
       style="fill:#ffffff;stroke:#000000;stroke-width:0.35433072;stroke-miterlimit:4;stroke-opacity:1;stroke-dasharray:none" />
    <rect
       style="fill:#ffffff;stroke:#000000;stroke-width:0.35433072;stroke-miterlimit:4;stroke-opacity:1;stroke-dasharray:none"
       id="rect3158"
       width="405.61661"
       height="405.61661"
       x="174.56711"
       y="241.68044" />
    <text
       xml:space="preserve"
       style="font-size:12px;font-style:normal;font-weight:normal;line-height:125%;letter-spacing:0px;word-spacing:0px;fill:url(#linearGradient3876);fill-opacity:1;stroke:none;font-family:Sans"
       x="364.35132"
       y="76.943771"
       id="text3776"
       sodipodi:linespacing="125%"><tspan
         sodipodi:role="line"
         id="tspan3778"
         x="364.35132"
         y="76.943771"
         style="fill:url(#linearGradient3876);fill-opacity:1">#1</tspan></text>
    <path
       style="fill:#000000;stroke:#000000;stroke-width:0.71220016;stroke-linecap:butt;stroke-linejoin:miter;stroke-miterlimit:4;stroke-opacity:1;stroke-dasharray:none"
       d="m 135.19825,131.60744 481.99253,-3e-5"
       id="path3878"
       inkscape:connector-curvature="0"
       sodipodi:nodetypes="cc" />
    <text
       xml:space="preserve"
       style="font-size:12px;font-style:normal;font-weight:normal;line-height:125%;letter-spacing:0px;word-spacing:0px;fill:#000000;fill-opacity:1;stroke:none;font-family:Sans"
       x="356.07877"
       y="121.50661"
       id="text4388"
       sodipodi:linespacing="125%"><tspan
         sodipodi:role="line"
         x="356.07877"
         y="121.50661"
         id="tspan4392">136,23</tspan></text>
  </g>
  <g
     inkscape:groupmode="layer"
     id="layer2"
     inkscape:label="Circles"
     transform="translate(0,-3.6171875e-6)"
     sodipodi:insensitive="true">
    <path
       sodipodi:type="arc"
       style="fill:#000000;fill-opacity:1;stroke:#000000;stroke-opacity:1"
       id="path5431"
       sodipodi:cx="147.85715"
       sodipodi:cy="211.6479"
       sodipodi:rx="22.142857"
       sodipodi:ry="22.142857"
       d="m 170,211.6479 c 0,12.22917 -9.91369,22.14286 -22.14285,22.14286 -12.22916,0 -22.14286,-9.91369 -22.14286,-22.14286 0,-12.22916 9.9137,-22.14285 22.14286,-22.14285 12.22916,0 22.14285,9.91369 22.14285,22.14285 z"
       transform="matrix(1.4083808,0,0,1.4083808,-72.183261,-94.702123)" />
    <path
       transform="matrix(1.4083808,0,0,1.4083808,410.52146,-94.702123)"
       d="m 170,211.6479 c 0,12.22917 -9.91369,22.14286 -22.14285,22.14286 -12.22916,0 -22.14286,-9.91369 -22.14286,-22.14286 0,-12.22916 9.9137,-22.14285 22.14286,-22.14285 12.22916,0 22.14285,9.91369 22.14285,22.14285 z"
       sodipodi:ry="22.142857"
       sodipodi:rx="22.142857"
       sodipodi:cy="211.6479"
       sodipodi:cx="147.85715"
       id="path3030"
       style="fill:#000000;fill-opacity:1;stroke:#000000;stroke-opacity:1"
       sodipodi:type="arc" />
    <path
       transform="matrix(1.4083808,0,0,1.4083808,193.30434,-94.702123)"
       d="m 170,211.6479 c 0,12.22917 -9.91369,22.14286 -22.14285,22.14286 -12.22916,0 -22.14286,-9.91369 -22.14286,-22.14286 0,-12.22916 9.9137,-22.14285 22.14286,-22.14285 12.22916,0 22.14285,9.91369 22.14285,22.14285 z"
       sodipodi:ry="22.142857"
       sodipodi:rx="22.142857"
       sodipodi:cy="211.6479"
       sodipodi:cx="147.85715"
       id="path3032"
       style="fill:#000000;fill-opacity:1;stroke:#000000;stroke-opacity:1"
       sodipodi:type="arc" />
    <path
       transform="matrix(1.4083808,0,0,1.4083808,72.628156,-94.702123)"
       d="m 170,211.6479 c 0,12.22917 -9.91369,22.14286 -22.14285,22.14286 -12.22916,0 -22.14286,-9.91369 -22.14286,-22.14286 0,-12.22916 9.9137,-22.14285 22.14286,-22.14285 12.22916,0 22.14285,9.91369 22.14285,22.14285 z"
       sodipodi:ry="22.142857"
       sodipodi:rx="22.142857"
       sodipodi:cy="211.6479"
       sodipodi:cx="147.85715"
       id="path3034"
       style="fill:#000000;fill-opacity:1;stroke:#000000;stroke-opacity:1"
       sodipodi:type="arc" />
    <path
       transform="matrix(1.4083808,0,0,1.4083808,-72.183261,50.109295)"
       d="m 170,211.6479 c 0,12.22917 -9.91369,22.14286 -22.14285,22.14286 -12.22916,0 -22.14286,-9.91369 -22.14286,-22.14286 0,-12.22916 9.9137,-22.14285 22.14286,-22.14285 12.22916,0 22.14285,9.91369 22.14285,22.14285 z"
       sodipodi:ry="22.142857"
       sodipodi:rx="22.142857"
       sodipodi:cy="211.6479"
       sodipodi:cx="147.85715"
       id="path3036"
       style="fill:#000000;fill-opacity:1;stroke:#000000;stroke-opacity:1"
       sodipodi:type="arc" />
    <path
       transform="matrix(1.4083808,0,0,1.4083808,-72.183261,170.7837)"
       d="m 170,211.6479 c 0,12.22917 -9.91369,22.14286 -22.14285,22.14286 -12.22916,0 -22.14286,-9.91369 -22.14286,-22.14286 0,-12.22916 9.9137,-22.14285 22.14286,-22.14285 12.22916,0 22.14285,9.91369 22.14285,22.14285 z"
       sodipodi:ry="22.142857"
       sodipodi:rx="22.142857"
       sodipodi:cy="211.6479"
       sodipodi:cx="147.85715"
       id="path3038"
       style="fill:#000000;fill-opacity:1;stroke:#000000;stroke-opacity:1"
       sodipodi:type="arc" />
    <path
       transform="matrix(1.4083808,0,0,1.4083808,-72.183261,388.0026)"
       d="m 170,211.6479 c 0,12.22917 -9.91369,22.14286 -22.14285,22.14286 -12.22916,0 -22.14286,-9.91369 -22.14286,-22.14286 0,-12.22916 9.9137,-22.14285 22.14286,-22.14285 12.22916,0 22.14285,9.91369 22.14285,22.14285 z"
       sodipodi:ry="22.142857"
       sodipodi:rx="22.142857"
       sodipodi:cy="211.6479"
       sodipodi:cx="147.85715"
       id="path3040"
       style="fill:#000000;fill-opacity:1;stroke:#000000;stroke-opacity:1"
       sodipodi:type="arc" />
    <path
       transform="matrix(1.4083808,0,0,1.4083808,265.71005,388.0026)"
       d="m 170,211.6479 c 0,12.22917 -9.91369,22.14286 -22.14285,22.14286 -12.22916,0 -22.14286,-9.91369 -22.14286,-22.14286 0,-12.22916 9.9137,-22.14285 22.14286,-22.14285 12.22916,0 22.14285,9.91369 22.14285,22.14285 z"
       sodipodi:ry="22.142857"
       sodipodi:rx="22.142857"
       sodipodi:cy="211.6479"
       sodipodi:cx="147.85715"
       id="path3042"
       style="fill:#000000;fill-opacity:1;stroke:#000000;stroke-opacity:1"
       sodipodi:type="arc" />
    <path
       transform="matrix(1.4083808,0,0,1.4083808,48.494692,388.0026)"
       d="m 170,211.6479 c 0,12.22917 -9.91369,22.14286 -22.14285,22.14286 -12.22916,0 -22.14286,-9.91369 -22.14286,-22.14286 0,-12.22916 9.9137,-22.14285 22.14286,-22.14285 12.22916,0 22.14285,9.91369 22.14285,22.14285 z"
       sodipodi:ry="22.142857"
       sodipodi:rx="22.142857"
       sodipodi:cy="211.6479"
       sodipodi:cx="147.85715"
       id="path3044"
       style="fill:#000000;fill-opacity:1;stroke:#000000;stroke-opacity:1"
       sodipodi:type="arc" />
    <path
       transform="matrix(1.4083808,0,0,1.4083808,410.51438,25.972287)"
       d="m 170,211.6479 c 0,12.22917 -9.91369,22.14286 -22.14285,22.14286 -12.22916,0 -22.14286,-9.91369 -22.14286,-22.14286 0,-12.22916 9.9137,-22.14285 22.14286,-22.14285 12.22916,0 22.14285,9.91369 22.14285,22.14285 z"
       sodipodi:ry="22.142857"
       sodipodi:rx="22.142857"
       sodipodi:cy="211.6479"
       sodipodi:cx="147.85715"
       id="path3046"
       style="fill:#000000;fill-opacity:1;stroke:#000000;stroke-opacity:1"
       sodipodi:type="arc" />
    <path
       sodipodi:type="arc"
       style="fill:#000000;fill-opacity:1;stroke:#000000;stroke-opacity:1"
       id="path3048"
       sodipodi:cx="147.85715"
       sodipodi:cy="211.6479"
       sodipodi:rx="22.142857"
       sodipodi:ry="22.142857"
       d="m 170,211.6479 c 0,12.22917 -9.91369,22.14286 -22.14285,22.14286 -12.22916,0 -22.14286,-9.91369 -22.14286,-22.14286 0,-12.22916 9.9137,-22.14285 22.14286,-22.14285 12.22916,0 22.14285,9.91369 22.14285,22.14285 z"
       transform="matrix(1.4083808,0,0,1.4083808,410.51438,243.19118)" />
    <path
       transform="matrix(1.4083808,0,0,1.4083808,410.51438,388.0026)"
       d="m 170,211.6479 c 0,12.22917 -9.91369,22.14286 -22.14285,22.14286 -12.22916,0 -22.14286,-9.91369 -22.14286,-22.14286 0,-12.22916 9.9137,-22.14285 22.14286,-22.14285 12.22916,0 22.14285,9.91369 22.14285,22.14285 z"
       sodipodi:ry="22.142857"
       sodipodi:rx="22.142857"
       sodipodi:cy="211.6479"
       sodipodi:cx="147.85715"
       id="path3050"
       style="fill:#000000;fill-opacity:1;stroke:#000000;stroke-opacity:1"
       sodipodi:type="arc" />
  </g>
</svg>
